<svg xmlns="http://www.w3.org/2000/svg" xmlns:xlink="http://www.w3.org/1999/xlink" width="500" zoomAndPan="magnify" viewBox="0 0 375 374.999991" height="500" preserveAspectRatio="xMidYMid meet" version="1.2"><defs><clipPath id="f58e9d32a9"><path d="M 3.121094 194.453125 L 372 194.453125 L 372 295.042969 L 3.121094 295.042969 Z M 3.121094 194.453125 "/></clipPath><clipPath id="487e138559"><path d="M 358.550781 194.453125 L 16.449219 194.453125 L 3.121094 207.785156 L 3.121094 281.710938 L 16.449219 295.042969 L 358.550781 295.042969 L 371.878906 281.710938 L 371.878906 207.785156 Z M 358.550781 194.453125 "/></clipPath><clipPath id="6be7d58db1"><path d="M 3.128906 194.453125 L 372 194.453125 L 372 294.953125 L 3.128906 294.953125 Z M 3.128906 194.453125 "/></clipPath><clipPath id="570bc3545b"><path d="M 358.25 194.453125 L 16.445312 194.453125 L 3.128906 207.773438 L 3.128906 281.636719 L 16.445312 294.953125 L 358.25 294.953125 L 371.566406 281.636719 L 371.566406 207.773438 Z M 358.25 194.453125 "/></clipPath><clipPath id="0d51488f5a"><path d="M 52.828125 23.121094 L 322.078125 23.121094 L 322.078125 181.371094 L 52.828125 181.371094 Z M 52.828125 23.121094 "/></clipPath><clipPath id="afe34b40d6"><path d="M 93.546875 63.71875 L 281.796875 63.71875 L 281.796875 183.71875 L 93.546875 183.71875 Z M 93.546875 63.71875 "/></clipPath><clipPath id="dd8b4b46d3"><path d="M 39.621094 308.5 L 53.121094 308.5 L 53.121094 322 L 39.621094 322 Z M 39.621094 308.5 "/></clipPath><clipPath id="91f6adbdd7"><path d="M 321.921875 308.5 L 335.421875 308.5 L 335.421875 322 L 321.921875 322 Z M 321.921875 308.5 "/></clipPath><clipPath id="8ecf460a9f"><path d="M 183 80.816406 L 192 80.816406 L 192 118 L 183 118 Z M 183 80.816406 "/></clipPath><clipPath id="4f97aff6fc"><path d="M 139 139 L 235 139 L 235 183.566406 L 139 183.566406 Z M 139 139 "/></clipPath><clipPath id="9f2d1a7f52"><path d="M 135.792969 130 L 239 130 L 239 137 L 135.792969 137 Z M 135.792969 130 "/></clipPath></defs><g id="e30bd7206a"><g clip-rule="nonzero" clip-path="url(#f58e9d32a9)"><g clip-rule="nonzero" clip-path="url(#487e138559)"><path style=" stroke:none;fill-rule:nonzero;fill:#ff8336;fill-opacity:1;" d="M 3.121094 194.453125 L 372.070312 194.453125 L 372.070312 295.039062 L 3.121094 295.039062 Z M 3.121094 194.453125 "/></g></g><g clip-rule="nonzero" clip-path="url(#6be7d58db1)"><g clip-rule="nonzero" clip-path="url(#570bc3545b)"><path style="fill:none;stroke-width:16;stroke-linecap:butt;stroke-linejoin:miter;stroke:#2a3472;stroke-opacity:1;stroke-miterlimit:4;" d="M 473.882886 -0.00155411 L 17.771276 -0.00155411 L 0.00157363 17.773361 L 0.00157363 116.33813 L 17.771276 134.107832 L 473.882886 134.107832 L 491.652589 116.33813 L 491.652589 17.773361 Z M 473.882886 -0.00155411 " transform="matrix(0.749388,0,0,0.749388,3.127727,194.45429)"/></g></g><g style="fill:#2a3472;fill-opacity:1;"><g transform="translate(64.291154, 326.733844)"><path style="stroke:none" d="M 1.90625 -20.921875 L 18.625 -20.921875 L 18.625 -16.40625 L 7.75 -16.40625 L 7.75 -12.734375 L 15.6875 -12.734375 L 15.6875 -8.1875 L 7.75 -8.1875 L 7.75 -4.515625 L 18.625 -4.515625 L 18.625 0 L 1.90625 0 Z M 1.90625 -20.921875 "/></g></g><g style="fill:#2a3472;fill-opacity:1;"><g transform="translate(87.25854, 326.733844)"><path style="stroke:none" d="M 1.90625 0 L 1.90625 -20.921875 L 6.421875 -20.921875 L 15.796875 -10.015625 L 15.796875 -20.921875 L 21.609375 -20.921875 L 21.609375 0 L 17.078125 0 L 7.75 -10.90625 L 7.75 0 Z M 1.90625 0 "/></g></g><g style="fill:#2a3472;fill-opacity:1;"><g transform="translate(113.993939, 326.733844)"><path style="stroke:none" d="M 12.375 -21.421875 C 14.101562 -21.421875 15.640625 -21.289062 16.984375 -21.03125 C 18.335938 -20.769531 19.554688 -20.363281 20.640625 -19.8125 L 20.640625 -14.828125 C 19.441406 -15.367188 18.296875 -15.734375 17.203125 -15.921875 C 16.117188 -16.117188 14.867188 -16.21875 13.453125 -16.21875 C 11.398438 -16.21875 9.8125 -15.722656 8.6875 -14.734375 C 7.5625 -13.742188 7 -12.328125 7 -10.484375 C 7 -8.640625 7.578125 -7.21875 8.734375 -6.21875 C 9.898438 -5.226562 11.472656 -4.734375 13.453125 -4.734375 C 13.722656 -4.734375 13.96875 -4.734375 14.1875 -4.734375 C 14.414062 -4.734375 14.648438 -4.75 14.890625 -4.78125 L 14.890625 -8 L 12.203125 -8 L 12.203125 -12.484375 L 20.640625 -12.484375 L 20.640625 -1.109375 C 19.585938 -0.703125 18.644531 -0.378906 17.8125 -0.140625 C 16.988281 0.0976562 16.15625 0.257812 15.3125 0.34375 C 14.476562 0.425781 13.5 0.46875 12.375 0.46875 C 10.132812 0.46875 8.171875 0.015625 6.484375 -0.890625 C 4.796875 -1.804688 3.488281 -3.082031 2.5625 -4.71875 C 1.644531 -6.351562 1.1875 -8.273438 1.1875 -10.484375 C 1.1875 -12.679688 1.644531 -14.597656 2.5625 -16.234375 C 3.488281 -17.878906 4.796875 -19.15625 6.484375 -20.0625 C 8.171875 -20.96875 10.132812 -21.421875 12.375 -21.421875 Z M 12.375 -21.421875 "/></g></g><g style="fill:#2a3472;fill-opacity:1;"><g transform="translate(139.688648, 326.733844)"><path style="stroke:none" d="M 1.90625 -20.921875 L 7.75 -20.921875 L 7.75 0 L 1.90625 0 Z M 1.90625 -20.921875 "/></g></g><g style="fill:#2a3472;fill-opacity:1;"><g transform="translate(152.536223, 326.733844)"><path style="stroke:none" d="M 1.90625 0 L 1.90625 -20.921875 L 6.421875 -20.921875 L 15.796875 -10.015625 L 15.796875 -20.921875 L 21.609375 -20.921875 L 21.609375 0 L 17.078125 0 L 7.75 -10.90625 L 7.75 0 Z M 1.90625 0 "/></g></g><g style="fill:#2a3472;fill-opacity:1;"><g transform="translate(179.271622, 326.733844)"><path style="stroke:none" d="M 1.90625 -20.921875 L 18.625 -20.921875 L 18.625 -16.40625 L 7.75 -16.40625 L 7.75 -12.734375 L 15.6875 -12.734375 L 15.6875 -8.1875 L 7.75 -8.1875 L 7.75 -4.515625 L 18.625 -4.515625 L 18.625 0 L 1.90625 0 Z M 1.90625 -20.921875 "/></g></g><g style="fill:#2a3472;fill-opacity:1;"><g transform="translate(202.239007, 326.733844)"><path style="stroke:none" d="M 1.90625 -20.921875 L 18.625 -20.921875 L 18.625 -16.40625 L 7.75 -16.40625 L 7.75 -12.734375 L 15.6875 -12.734375 L 15.6875 -8.1875 L 7.75 -8.1875 L 7.75 -4.515625 L 18.625 -4.515625 L 18.625 0 L 1.90625 0 Z M 1.90625 -20.921875 "/></g></g><g style="fill:#2a3472;fill-opacity:1;"><g transform="translate(225.206393, 326.733844)"><path style="stroke:none" d="M 1.90625 0 L 1.90625 -20.921875 L 12.015625 -20.921875 C 14.128906 -20.921875 15.757812 -20.332031 16.90625 -19.15625 C 18.050781 -17.988281 18.625 -16.410156 18.625 -14.421875 C 18.625 -11.984375 17.800781 -10.191406 16.15625 -9.046875 L 19.890625 0 L 13.78125 0 L 10.515625 -7.890625 L 7.75 -7.890625 L 7.75 0 Z M 7.75 -12.484375 L 10.734375 -12.484375 C 12.097656 -12.484375 12.78125 -13.128906 12.78125 -14.421875 C 12.78125 -15.742188 12.097656 -16.40625 10.734375 -16.40625 L 7.75 -16.40625 Z M 7.75 -12.484375 "/></g></g><g style="fill:#2a3472;fill-opacity:1;"><g transform="translate(248.640303, 326.733844)"><path style="stroke:none" d="M 1.90625 -20.921875 L 7.75 -20.921875 L 7.75 0 L 1.90625 0 Z M 1.90625 -20.921875 "/></g></g><g style="fill:#2a3472;fill-opacity:1;"><g transform="translate(261.487877, 326.733844)"><path style="stroke:none" d="M 1.90625 0 L 1.90625 -20.921875 L 6.421875 -20.921875 L 15.796875 -10.015625 L 15.796875 -20.921875 L 21.609375 -20.921875 L 21.609375 0 L 17.078125 0 L 7.75 -10.90625 L 7.75 0 Z M 1.90625 0 "/></g></g><g style="fill:#2a3472;fill-opacity:1;"><g transform="translate(288.223277, 326.733844)"><path style="stroke:none" d="M 12.375 -21.421875 C 14.101562 -21.421875 15.640625 -21.289062 16.984375 -21.03125 C 18.335938 -20.769531 19.554688 -20.363281 20.640625 -19.8125 L 20.640625 -14.828125 C 19.441406 -15.367188 18.296875 -15.734375 17.203125 -15.921875 C 16.117188 -16.117188 14.867188 -16.21875 13.453125 -16.21875 C 11.398438 -16.21875 9.8125 -15.722656 8.6875 -14.734375 C 7.5625 -13.742188 7 -12.328125 7 -10.484375 C 7 -8.640625 7.578125 -7.21875 8.734375 -6.21875 C 9.898438 -5.226562 11.472656 -4.734375 13.453125 -4.734375 C 13.722656 -4.734375 13.96875 -4.734375 14.1875 -4.734375 C 14.414062 -4.734375 14.648438 -4.75 14.890625 -4.78125 L 14.890625 -8 L 12.203125 -8 L 12.203125 -12.484375 L 20.640625 -12.484375 L 20.640625 -1.109375 C 19.585938 -0.703125 18.644531 -0.378906 17.8125 -0.140625 C 16.988281 0.0976562 16.15625 0.257812 15.3125 0.34375 C 14.476562 0.425781 13.5 0.46875 12.375 0.46875 C 10.132812 0.46875 8.171875 0.015625 6.484375 -0.890625 C 4.796875 -1.804688 3.488281 -3.082031 2.5625 -4.71875 C 1.644531 -6.351562 1.1875 -8.273438 1.1875 -10.484375 C 1.1875 -12.679688 1.644531 -14.597656 2.5625 -16.234375 C 3.488281 -17.878906 4.796875 -19.15625 6.484375 -20.0625 C 8.171875 -20.96875 10.132812 -21.421875 12.375 -21.421875 Z M 12.375 -21.421875 "/></g></g><path style="fill:none;stroke-width:8;stroke-linecap:round;stroke-linejoin:miter;stroke:#2a3472;stroke-opacity:1;stroke-miterlimit:4;" d="M 3.999529 3.998128 L 284.509964 3.998128 " transform="matrix(0.75,0,0,0.75,79.308947,335.302185)"/><g clip-rule="nonzero" clip-path="url(#0d51488f5a)"><path style=" stroke:none;fill-rule:nonzero;fill:#2a3472;fill-opacity:1;" d="M 187.429688 261.265625 C 130.339844 261.265625 83.894531 214.816406 83.894531 157.726562 C 83.894531 100.640625 130.339844 54.191406 187.429688 54.191406 C 244.515625 54.191406 290.964844 100.640625 290.964844 157.726562 C 290.964844 214.816406 244.515625 261.265625 187.429688 261.265625 Z M 299.964844 157.726562 C 299.964844 156.402344 299.914062 155.082031 299.867188 153.761719 L 322.027344 147.214844 C 321.65625 142.417969 321.039062 137.695312 320.179688 133.050781 L 297.082031 132.457031 C 296.488281 129.863281 295.824219 127.296875 295.054688 124.773438 L 314.738281 112.726562 C 313.136719 108.21875 311.324219 103.808594 309.277344 99.53125 L 286.820312 104.933594 C 285.570312 102.59375 284.238281 100.304688 282.835938 98.066406 L 298.71875 81.34375 C 296.011719 77.410156 293.089844 73.636719 289.992188 70.015625 L 269.742188 81.023438 C 267.9375 79.089844 266.070312 77.21875 264.136719 75.417969 L 275.140625 55.171875 C 271.523438 52.070312 267.75 49.152344 263.816406 46.445312 L 247.09375 62.320312 C 244.855469 60.917969 242.566406 59.589844 240.222656 58.339844 L 245.628906 35.886719 C 241.351562 33.835938 236.941406 32.023438 232.433594 30.425781 L 220.382812 50.105469 C 217.863281 49.332031 215.296875 48.671875 212.703125 48.074219 L 212.109375 24.980469 C 207.464844 24.121094 202.742188 23.507812 197.945312 23.132812 L 191.394531 45.292969 C 190.078125 45.242188 188.757812 45.191406 187.429688 45.191406 C 186.101562 45.191406 184.78125 45.242188 183.46875 45.292969 L 176.914062 23.132812 C 172.117188 23.507812 167.398438 24.121094 162.75 24.980469 L 162.15625 48.074219 C 159.566406 48.671875 157 49.332031 154.476562 50.105469 L 142.429688 30.425781 C 137.917969 32.023438 133.507812 33.835938 129.234375 35.886719 L 134.636719 58.339844 C 132.292969 59.589844 130.007812 60.917969 127.765625 62.320312 L 111.046875 46.445312 C 107.113281 49.152344 103.339844 52.070312 99.71875 55.171875 L 110.726562 75.417969 C 108.792969 77.21875 106.921875 79.089844 105.117188 81.023438 L 84.871094 70.015625 C 81.773438 73.636719 78.851562 77.410156 76.144531 81.34375 L 92.027344 98.066406 C 90.621094 100.304688 89.289062 102.589844 88.042969 104.933594 L 65.585938 99.53125 C 63.535156 103.808594 61.722656 108.21875 60.125 112.726562 L 79.808594 124.773438 C 79.035156 127.296875 78.375 129.863281 77.777344 132.457031 L 54.683594 133.050781 C 53.824219 137.695312 53.207031 142.417969 52.835938 147.214844 L 74.996094 153.761719 C 74.949219 155.082031 74.894531 156.402344 74.894531 157.726562 C 74.894531 159.054688 74.949219 160.375 74.996094 161.691406 L 52.835938 168.242188 C 53.207031 173.039062 53.824219 177.761719 54.683594 182.410156 L 77.777344 183 C 78.371094 185.59375 79.035156 188.164062 79.808594 190.683594 L 60.125 202.730469 C 61.722656 207.242188 63.535156 211.648438 65.585938 215.925781 L 88.042969 210.523438 C 89.289062 212.867188 90.621094 215.152344 92.023438 217.394531 L 76.144531 234.113281 C 78.851562 238.046875 81.773438 241.820312 84.871094 245.441406 L 105.117188 234.433594 C 106.921875 236.367188 108.792969 238.234375 110.726562 240.042969 L 99.71875 260.289062 C 103.339844 263.386719 107.113281 266.304688 111.046875 269.011719 L 127.765625 253.132812 C 130.007812 254.535156 132.292969 255.871094 134.636719 257.117188 L 129.234375 279.574219 C 133.507812 281.621094 137.917969 283.4375 142.429688 285.03125 L 154.476562 265.351562 C 156.996094 266.125 159.566406 266.785156 162.15625 267.382812 L 162.75 290.472656 C 167.398438 291.335938 172.117188 291.953125 176.914062 292.324219 L 183.46875 270.164062 C 184.78125 270.214844 186.101562 270.265625 187.429688 270.265625 C 188.757812 270.265625 190.078125 270.214844 191.394531 270.164062 L 197.945312 292.324219 C 202.742188 291.953125 207.464844 291.335938 212.109375 290.472656 L 212.703125 267.382812 C 215.296875 266.785156 217.863281 266.125 220.382812 265.351562 L 232.433594 285.03125 C 236.941406 283.4375 241.351562 281.621094 245.628906 279.574219 L 240.222656 257.117188 C 242.566406 255.871094 244.855469 254.535156 247.09375 253.132812 L 263.816406 269.011719 C 267.75 266.304688 271.523438 263.386719 275.140625 260.289062 L 264.136719 240.039062 C 266.070312 238.234375 267.941406 236.367188 269.742188 234.433594 L 289.992188 245.441406 C 293.089844 241.820312 296.011719 238.046875 298.71875 234.113281 L 282.835938 217.394531 C 284.238281 215.152344 285.574219 212.867188 286.820312 210.523438 L 309.277344 215.925781 C 311.324219 211.648438 313.136719 207.242188 314.738281 202.730469 L 295.054688 190.683594 C 295.824219 188.164062 296.488281 185.59375 297.085938 183 L 320.179688 182.410156 C 321.039062 177.761719 321.65625 173.039062 322.027344 168.242188 L 299.867188 161.691406 C 299.914062 160.375 299.964844 159.054688 299.964844 157.726562 "/></g><g clip-rule="nonzero" clip-path="url(#afe34b40d6)"><path style=" stroke:none;fill-rule:nonzero;fill:#2a3472;fill-opacity:1;" d="M 187.496094 251.617188 C 135.589844 251.617188 93.546875 209.285156 93.546875 157.667969 C 93.546875 106.054688 135.589844 63.71875 187.496094 63.71875 C 239.398438 63.71875 281.445312 105.765625 281.445312 157.667969 C 281.445312 209.574219 239.109375 251.617188 187.496094 251.617188 Z M 187.496094 69.519531 C 138.78125 69.519531 99.34375 108.957031 99.34375 157.667969 C 99.34375 206.382812 138.78125 245.820312 187.496094 245.820312 C 236.207031 245.820312 275.644531 206.382812 275.644531 157.667969 C 275.644531 108.957031 235.917969 69.519531 187.496094 69.519531 Z M 187.496094 69.519531 "/></g><g clip-rule="nonzero" clip-path="url(#dd8b4b46d3)"><path style=" stroke:none;fill-rule:nonzero;fill:#2a3472;fill-opacity:1;" d="M 53.074219 315.226562 C 53.074219 315.667969 53.03125 316.105469 52.945312 316.539062 C 52.855469 316.972656 52.730469 317.394531 52.5625 317.800781 C 52.390625 318.207031 52.183594 318.597656 51.9375 318.964844 C 51.695312 319.332031 51.414062 319.671875 51.101562 319.984375 C 50.789062 320.296875 50.449219 320.574219 50.082031 320.820312 C 49.714844 321.066406 49.328125 321.273438 48.921875 321.441406 C 48.511719 321.609375 48.089844 321.738281 47.660156 321.824219 C 47.226562 321.910156 46.789062 321.953125 46.347656 321.953125 C 45.90625 321.953125 45.46875 321.910156 45.035156 321.824219 C 44.601562 321.738281 44.179688 321.609375 43.773438 321.441406 C 43.363281 321.273438 42.976562 321.066406 42.609375 320.820312 C 42.242188 320.574219 41.902344 320.296875 41.589844 319.984375 C 41.277344 319.671875 41 319.332031 40.753906 318.964844 C 40.507812 318.597656 40.300781 318.207031 40.132812 317.800781 C 39.960938 317.394531 39.835938 316.972656 39.75 316.539062 C 39.664062 316.105469 39.621094 315.667969 39.621094 315.226562 C 39.621094 314.785156 39.664062 314.347656 39.75 313.914062 C 39.835938 313.480469 39.960938 313.058594 40.132812 312.652344 C 40.300781 312.246094 40.507812 311.855469 40.753906 311.488281 C 41 311.121094 41.277344 310.78125 41.589844 310.46875 C 41.902344 310.15625 42.242188 309.878906 42.609375 309.632812 C 42.976562 309.386719 43.363281 309.179688 43.773438 309.011719 C 44.179688 308.84375 44.601562 308.714844 45.035156 308.628906 C 45.46875 308.542969 45.90625 308.5 46.347656 308.5 C 46.789062 308.5 47.226562 308.542969 47.660156 308.628906 C 48.089844 308.714844 48.511719 308.84375 48.921875 309.011719 C 49.328125 309.179688 49.714844 309.386719 50.082031 309.632812 C 50.449219 309.878906 50.789062 310.15625 51.101562 310.46875 C 51.414062 310.78125 51.695312 311.121094 51.9375 311.488281 C 52.183594 311.855469 52.390625 312.246094 52.5625 312.652344 C 52.730469 313.058594 52.855469 313.480469 52.945312 313.914062 C 53.03125 314.347656 53.074219 314.785156 53.074219 315.226562 Z M 53.074219 315.226562 "/></g><g clip-rule="nonzero" clip-path="url(#91f6adbdd7)"><path style=" stroke:none;fill-rule:nonzero;fill:#2a3472;fill-opacity:1;" d="M 335.375 315.226562 C 335.375 315.667969 335.332031 316.105469 335.246094 316.539062 C 335.160156 316.972656 335.03125 317.394531 334.863281 317.800781 C 334.695312 318.207031 334.484375 318.597656 334.242188 318.964844 C 333.996094 319.332031 333.714844 319.671875 333.402344 319.984375 C 333.09375 320.296875 332.753906 320.574219 332.386719 320.820312 C 332.019531 321.066406 331.628906 321.273438 331.222656 321.441406 C 330.8125 321.609375 330.394531 321.738281 329.960938 321.824219 C 329.527344 321.910156 329.089844 321.953125 328.648438 321.953125 C 328.207031 321.953125 327.769531 321.910156 327.335938 321.824219 C 326.902344 321.738281 326.480469 321.609375 326.074219 321.441406 C 325.664062 321.273438 325.277344 321.066406 324.910156 320.820312 C 324.542969 320.574219 324.203125 320.296875 323.890625 319.984375 C 323.578125 319.671875 323.300781 319.332031 323.054688 318.964844 C 322.808594 318.597656 322.601562 318.207031 322.433594 317.800781 C 322.265625 317.394531 322.136719 316.972656 322.050781 316.539062 C 321.964844 316.105469 321.921875 315.667969 321.921875 315.226562 C 321.921875 314.785156 321.964844 314.347656 322.050781 313.914062 C 322.136719 313.480469 322.265625 313.058594 322.433594 312.652344 C 322.601562 312.246094 322.808594 311.855469 323.054688 311.488281 C 323.300781 311.121094 323.578125 310.78125 323.890625 310.46875 C 324.203125 310.15625 324.542969 309.878906 324.910156 309.632812 C 325.277344 309.386719 325.664062 309.179688 326.074219 309.011719 C 326.480469 308.84375 326.902344 308.714844 327.335938 308.628906 C 327.769531 308.542969 328.207031 308.5 328.648438 308.5 C 329.089844 308.5 329.527344 308.542969 329.960938 308.628906 C 330.394531 308.714844 330.8125 308.84375 331.222656 309.011719 C 331.628906 309.179688 332.019531 309.386719 332.386719 309.632812 C 332.753906 309.878906 333.09375 310.15625 333.402344 310.46875 C 333.714844 310.78125 333.996094 311.121094 334.242188 311.488281 C 334.484375 311.855469 334.695312 312.246094 334.863281 312.652344 C 335.03125 313.058594 335.160156 313.480469 335.246094 313.914062 C 335.332031 314.347656 335.375 314.785156 335.375 315.226562 Z M 335.375 315.226562 "/></g><g style="fill:#ffffff;fill-opacity:1;"><g transform="translate(20.363451, 275.703431)"><path style="stroke:none" d="M 35.984375 -61.53125 L 46.140625 -61.53125 C 47.171875 -61.53125 47.6875 -61.015625 47.6875 -59.984375 L 47.6875 -1.53125 C 47.6875 -0.507812 47.171875 0 46.140625 0 L 38.984375 0 C 37.960938 0 37.453125 -0.507812 37.453125 -1.53125 L 37.453125 -36.140625 L 36.921875 -36.140625 L 29.296875 -1.390625 C 29.097656 -0.460938 28.535156 0 27.609375 0 L 23.84375 0 C 22.96875 0 22.40625 -0.460938 22.15625 -1.390625 L 14.53125 -36.140625 L 14 -36.140625 L 14 -1.53125 C 14 -0.507812 13.484375 0 12.453125 0 L 5.390625 0 C 4.359375 0 3.84375 -0.507812 3.84375 -1.53125 L 3.84375 -59.984375 C 3.84375 -61.015625 4.359375 -61.53125 5.390625 -61.53125 L 15.53125 -61.53125 C 16.457031 -61.53125 17.023438 -61.066406 17.234375 -60.140625 L 25.765625 -21.84375 L 34.296875 -60.140625 C 34.554688 -61.066406 35.117188 -61.53125 35.984375 -61.53125 Z M 35.984375 -61.53125 "/></g></g><g style="fill:#ffffff;fill-opacity:1;"><g transform="translate(75.727703, 275.703431)"><path style="stroke:none" d="M 26 -61.53125 L 33.0625 -61.53125 C 33.476562 -61.53125 33.835938 -61.375 34.140625 -61.0625 C 34.453125 -60.757812 34.609375 -60.398438 34.609375 -59.984375 L 34.609375 -11.078125 C 34.609375 -7.484375 33.671875 -4.738281 31.796875 -2.84375 C 29.929688 -0.945312 27.175781 0 23.53125 0 L 14.921875 0 C 11.328125 0 8.582031 -0.945312 6.6875 -2.84375 C 4.789062 -4.738281 3.84375 -7.484375 3.84375 -11.078125 L 3.84375 -59.984375 C 3.84375 -60.398438 3.992188 -60.757812 4.296875 -61.0625 C 4.609375 -61.375 4.972656 -61.53125 5.390625 -61.53125 L 12.765625 -61.53125 C 13.171875 -61.53125 13.523438 -61.375 13.828125 -61.0625 C 14.140625 -60.757812 14.296875 -60.398438 14.296875 -59.984375 L 14.296875 -13.234375 C 14.296875 -11.179688 15.320312 -10.15625 17.375 -10.15625 L 21.375 -10.15625 C 23.425781 -10.15625 24.453125 -11.179688 24.453125 -13.234375 L 24.453125 -59.984375 C 24.453125 -60.398438 24.601562 -60.757812 24.90625 -61.0625 C 25.21875 -61.375 25.582031 -61.53125 26 -61.53125 Z M 26 -61.53125 "/></g></g><g style="fill:#ffffff;fill-opacity:1;"><g transform="translate(118.020015, 275.703431)"><path style="stroke:none" d="M 27.453125 -61.53125 L 35.453125 -61.53125 C 36.273438 -61.53125 36.6875 -61.117188 36.6875 -60.296875 L 36.6875 -1.234375 C 36.6875 -0.410156 36.273438 0 35.453125 0 L 27.84375 0 C 27.125 0 26.660156 -0.332031 26.453125 -1 L 14.6875 -33.84375 L 14.296875 -33.84375 L 14.296875 -1.234375 C 14.296875 -0.410156 13.890625 0 13.078125 0 L 5.078125 0 C 4.253906 0 3.84375 -0.410156 3.84375 -1.234375 L 3.84375 -60.296875 C 3.84375 -61.117188 4.253906 -61.53125 5.078125 -61.53125 L 12.6875 -61.53125 C 13.40625 -61.53125 13.867188 -61.195312 14.078125 -60.53125 L 25.765625 -27.84375 L 26.21875 -27.84375 L 26.21875 -60.296875 C 26.21875 -61.117188 26.628906 -61.53125 27.453125 -61.53125 Z M 27.453125 -61.53125 "/></g></g><g style="fill:#ffffff;fill-opacity:1;"><g transform="translate(162.388456, 275.703431)"><path style="stroke:none" d="M 3.53125 -61.53125 L 31.84375 -61.53125 C 32.65625 -61.53125 33.0625 -61.117188 33.0625 -60.296875 L 33.0625 -52.609375 C 33.0625 -51.785156 32.65625 -51.375 31.84375 -51.375 L 22.921875 -51.375 L 22.921875 -1.234375 C 22.921875 -0.410156 22.507812 0 21.6875 0 L 13.6875 0 C 12.863281 0 12.453125 -0.410156 12.453125 -1.234375 L 12.453125 -51.375 L 3.53125 -51.375 C 2.71875 -51.375 2.3125 -51.785156 2.3125 -52.609375 L 2.3125 -60.296875 C 2.3125 -61.117188 2.71875 -61.53125 3.53125 -61.53125 Z M 3.53125 -61.53125 "/></g></g><g style="fill:#ffffff;fill-opacity:1;"><g transform="translate(201.605008, 275.703431)"><path style="stroke:none" d="M 40.921875 0 L 32.765625 0 C 32.097656 0 31.6875 -0.359375 31.53125 -1.078125 L 29.375 -12.3125 L 15.6875 -12.3125 L 13.609375 -1.078125 C 13.453125 -0.359375 13.039062 0 12.375 0 L 4.15625 0 C 3.226562 0 2.894531 -0.4375 3.15625 -1.3125 L 15.921875 -60.453125 C 16.078125 -61.171875 16.515625 -61.53125 17.234375 -61.53125 L 27.921875 -61.53125 C 28.640625 -61.53125 29.070312 -61.171875 29.21875 -60.453125 L 41.984375 -1.3125 C 42.140625 -0.4375 41.785156 0 40.921875 0 Z M 27.453125 -21.21875 L 22.53125 -48.0625 L 17.609375 -21.21875 Z M 27.453125 -21.21875 "/></g></g><g style="fill:#ffffff;fill-opacity:1;"><g transform="translate(250.510186, 275.703431)"><path style="stroke:none" d="M 5.6875 -61.53125 L 34.609375 -61.53125 C 35.835938 -61.53125 36.222656 -60.910156 35.765625 -59.671875 L 16.609375 -10.15625 L 33.53125 -10.15625 C 34.351562 -10.15625 34.765625 -9.742188 34.765625 -8.921875 L 34.765625 -1.3125 C 34.765625 -0.539062 34.351562 -0.101562 33.53125 0 L 3.609375 0 C 2.992188 0 2.597656 -0.175781 2.421875 -0.53125 C 2.242188 -0.894531 2.257812 -1.332031 2.46875 -1.84375 L 21.609375 -51.296875 L 5.6875 -51.296875 C 4.863281 -51.296875 4.453125 -51.707031 4.453125 -52.53125 L 4.453125 -60.21875 C 4.453125 -60.988281 4.863281 -61.425781 5.6875 -61.53125 Z M 5.6875 -61.53125 "/></g></g><g style="fill:#ffffff;fill-opacity:1;"><g transform="translate(293.340754, 275.703431)"><path style="stroke:none" d="M 5.078125 -61.53125 L 13.078125 -61.53125 C 13.890625 -61.53125 14.296875 -61.117188 14.296875 -60.296875 L 14.296875 -1.234375 C 14.296875 -0.410156 13.890625 0 13.078125 0 L 5.078125 0 C 4.253906 0 3.84375 -0.410156 3.84375 -1.234375 L 3.84375 -60.296875 C 3.84375 -61.117188 4.253906 -61.53125 5.078125 -61.53125 Z M 5.078125 -61.53125 "/></g></g><g style="fill:#ffffff;fill-opacity:1;"><g transform="translate(315.333109, 275.703431)"><path style="stroke:none" d="M 35.453125 -50.453125 L 35.453125 -31.6875 C 35.453125 -26.5625 33.582031 -23.175781 29.84375 -21.53125 L 35.140625 -1.390625 C 35.398438 -0.460938 35.039062 0 34.0625 0 L 26.078125 0 C 25.359375 0 24.921875 -0.359375 24.765625 -1.078125 L 19.609375 -20.609375 L 14.296875 -20.609375 L 14.296875 -1.234375 C 14.296875 -0.410156 13.890625 0 13.078125 0 L 5.078125 0 C 4.253906 0 3.84375 -0.410156 3.84375 -1.234375 L 3.84375 -60.296875 C 3.84375 -61.117188 4.253906 -61.53125 5.078125 -61.53125 L 24.375 -61.53125 C 28.019531 -61.53125 30.773438 -60.59375 32.640625 -58.71875 C 34.515625 -56.84375 35.453125 -54.085938 35.453125 -50.453125 Z M 14.296875 -30.765625 L 21.921875 -30.765625 C 23.972656 -30.765625 25 -31.789062 25 -33.84375 L 25 -48.296875 C 25 -50.347656 23.972656 -51.375 21.921875 -51.375 L 14.296875 -51.375 Z M 14.296875 -30.765625 "/></g></g><path style="fill:none;stroke-width:8;stroke-linecap:round;stroke-linejoin:miter;stroke:#2a3472;stroke-opacity:1;stroke-miterlimit:4;" d="M 3.997919 3.997702 L 213.038458 3.997702 " transform="matrix(0.749892,0,0,0.749892,106.111368,345.877156)"/><path style=" stroke:none;fill-rule:nonzero;fill:#2a3472;fill-opacity:1;" d="M 206.679688 117.621094 C 207.046875 117.621094 207.398438 117.550781 207.738281 117.410156 C 208.074219 117.269531 208.375 117.070312 208.632812 116.8125 C 208.890625 116.554688 209.089844 116.253906 209.230469 115.917969 C 209.371094 115.578125 209.441406 115.226562 209.441406 114.859375 L 209.441406 87.238281 C 209.441406 86.875 209.371094 86.519531 209.230469 86.183594 C 209.089844 85.84375 208.890625 85.546875 208.632812 85.285156 C 208.375 85.027344 208.074219 84.828125 207.738281 84.6875 C 207.398438 84.546875 207.046875 84.476562 206.679688 84.476562 C 206.3125 84.476562 205.960938 84.546875 205.621094 84.6875 C 205.285156 84.828125 204.984375 85.027344 204.726562 85.285156 C 204.46875 85.546875 204.269531 85.84375 204.128906 86.183594 C 203.988281 86.519531 203.917969 86.875 203.917969 87.238281 L 203.917969 114.859375 C 203.917969 115.226562 203.988281 115.578125 204.128906 115.917969 C 204.269531 116.253906 204.46875 116.554688 204.726562 116.8125 C 204.988281 117.070312 205.285156 117.269531 205.625 117.410156 C 205.960938 117.550781 206.3125 117.621094 206.679688 117.621094 Z M 206.679688 117.621094 "/><path style=" stroke:none;fill-rule:nonzero;fill:#2a3472;fill-opacity:1;" d="M 168.011719 117.621094 C 168.375 117.621094 168.730469 117.550781 169.066406 117.410156 C 169.40625 117.269531 169.703125 117.070312 169.960938 116.8125 C 170.222656 116.554688 170.421875 116.253906 170.5625 115.917969 C 170.703125 115.578125 170.773438 115.226562 170.773438 114.859375 L 170.773438 87.238281 C 170.773438 86.875 170.703125 86.519531 170.5625 86.183594 C 170.421875 85.84375 170.222656 85.546875 169.964844 85.285156 C 169.703125 85.027344 169.40625 84.828125 169.066406 84.6875 C 168.730469 84.546875 168.375 84.476562 168.011719 84.476562 C 167.644531 84.476562 167.292969 84.546875 166.953125 84.6875 C 166.613281 84.828125 166.316406 85.027344 166.058594 85.285156 C 165.796875 85.546875 165.597656 85.84375 165.457031 86.183594 C 165.320312 86.519531 165.25 86.875 165.25 87.238281 L 165.25 114.859375 C 165.25 115.226562 165.320312 115.578125 165.460938 115.917969 C 165.601562 116.253906 165.800781 116.554688 166.058594 116.8125 C 166.316406 117.070312 166.617188 117.269531 166.953125 117.410156 C 167.292969 117.550781 167.644531 117.621094 168.011719 117.621094 Z M 168.011719 117.621094 "/><path style=" stroke:none;fill-rule:nonzero;fill:#2a3472;fill-opacity:1;" d="M 225.726562 106.792969 C 222.53125 101.238281 218.332031 96.59375 213.125 92.859375 L 213.125 114.859375 C 213.125 115.285156 213.082031 115.703125 213 116.117188 C 212.917969 116.53125 212.796875 116.9375 212.632812 117.328125 C 212.472656 117.71875 212.273438 118.089844 212.039062 118.441406 C 211.804688 118.792969 211.535156 119.117188 211.238281 119.417969 C 210.9375 119.71875 210.613281 119.984375 210.261719 120.21875 C 209.910156 120.453125 209.539062 120.652344 209.144531 120.816406 C 208.753906 120.976562 208.351562 121.097656 207.9375 121.179688 C 207.523438 121.265625 207.101562 121.304688 206.679688 121.304688 C 206.257812 121.304688 205.835938 121.265625 205.421875 121.179688 C 205.007812 121.097656 204.605469 120.976562 204.214844 120.816406 C 203.824219 120.652344 203.449219 120.453125 203.097656 120.21875 C 202.746094 119.984375 202.421875 119.71875 202.121094 119.417969 C 201.824219 119.117188 201.554688 118.792969 201.320312 118.441406 C 201.085938 118.089844 200.886719 117.71875 200.726562 117.328125 C 200.5625 116.9375 200.441406 116.53125 200.359375 116.117188 C 200.277344 115.703125 200.234375 115.285156 200.234375 114.859375 L 200.234375 87.238281 C 200.234375 87 200.25 86.765625 200.273438 86.527344 C 198.449219 85.976562 196.59375 85.542969 194.710938 85.234375 L 194.710938 113.941406 C 194.710938 114.421875 194.664062 114.902344 194.570312 115.375 C 194.476562 115.851562 194.335938 116.3125 194.148438 116.757812 C 193.964844 117.207031 193.738281 117.628906 193.46875 118.03125 C 193.199219 118.433594 192.894531 118.804688 192.554688 119.148438 C 192.210938 119.488281 191.839844 119.796875 191.4375 120.0625 C 191.035156 120.332031 190.609375 120.558594 190.164062 120.746094 C 189.71875 120.929688 189.257812 121.070312 188.78125 121.164062 C 188.308594 121.257812 187.828125 121.304688 187.34375 121.304688 C 186.863281 121.304688 186.382812 121.257812 185.90625 121.164062 C 185.433594 121.070312 184.972656 120.929688 184.527344 120.746094 C 184.078125 120.558594 183.65625 120.332031 183.253906 120.0625 C 182.851562 119.796875 182.480469 119.488281 182.136719 119.148438 C 181.792969 118.804688 181.488281 118.433594 181.222656 118.03125 C 180.953125 117.628906 180.726562 117.207031 180.539062 116.757812 C 180.355469 116.3125 180.214844 115.851562 180.121094 115.375 C 180.027344 114.902344 179.980469 114.421875 179.980469 113.941406 L 179.980469 85.234375 C 178.097656 85.542969 176.242188 85.976562 174.414062 86.527344 C 174.441406 86.765625 174.457031 87 174.457031 87.238281 L 174.457031 114.859375 C 174.457031 115.285156 174.414062 115.703125 174.332031 116.117188 C 174.25 116.53125 174.125 116.9375 173.964844 117.328125 C 173.804688 117.71875 173.605469 118.089844 173.371094 118.441406 C 173.132812 118.792969 172.867188 119.117188 172.566406 119.417969 C 172.269531 119.71875 171.941406 119.984375 171.589844 120.21875 C 171.238281 120.453125 170.867188 120.652344 170.476562 120.816406 C 170.085938 120.976562 169.683594 121.097656 169.269531 121.179688 C 168.851562 121.265625 168.433594 121.304688 168.011719 121.304688 C 167.585938 121.304688 167.167969 121.265625 166.753906 121.179688 C 166.339844 121.097656 165.933594 120.976562 165.542969 120.816406 C 165.152344 120.652344 164.78125 120.453125 164.429688 120.21875 C 164.078125 119.984375 163.753906 119.71875 163.453125 119.417969 C 163.152344 119.117188 162.886719 118.792969 162.652344 118.441406 C 162.417969 118.089844 162.21875 117.71875 162.054688 117.328125 C 161.894531 116.9375 161.773438 116.53125 161.6875 116.117188 C 161.605469 115.703125 161.566406 115.285156 161.566406 114.859375 L 161.566406 92.859375 C 160.207031 93.828125 158.910156 94.871094 157.671875 95.988281 C 156.433594 97.105469 155.261719 98.289062 154.160156 99.539062 C 153.054688 100.789062 152.027344 102.097656 151.070312 103.46875 C 150.117188 104.835938 149.242188 106.25 148.449219 107.71875 C 147.65625 109.1875 146.949219 110.691406 146.328125 112.242188 C 145.707031 113.789062 145.171875 115.367188 144.730469 116.972656 C 144.289062 118.582031 143.941406 120.210938 143.683594 121.859375 C 143.425781 123.507812 143.261719 125.164062 143.195312 126.828125 L 231.496094 126.828125 C 231.351562 123.308594 230.789062 119.851562 229.8125 116.464844 C 228.839844 113.078125 227.476562 109.851562 225.726562 106.792969 Z M 225.726562 106.792969 "/><g clip-rule="nonzero" clip-path="url(#8ecf460a9f)"><path style=" stroke:none;fill-rule:nonzero;fill:#2a3472;fill-opacity:1;" d="M 187.34375 117.621094 C 187.832031 117.621094 188.304688 117.527344 188.753906 117.339844 C 189.203125 117.152344 189.601562 116.886719 189.949219 116.542969 C 190.292969 116.199219 190.558594 115.800781 190.746094 115.347656 C 190.933594 114.898438 191.027344 114.429688 191.027344 113.941406 L 191.027344 84.476562 C 191.027344 83.988281 190.933594 83.519531 190.746094 83.066406 C 190.5625 82.617188 190.292969 82.21875 189.949219 81.875 C 189.605469 81.527344 189.207031 81.261719 188.753906 81.074219 C 188.304688 80.886719 187.832031 80.792969 187.34375 80.792969 C 186.855469 80.792969 186.386719 80.886719 185.9375 81.074219 C 185.484375 81.261719 185.085938 81.527344 184.742188 81.875 C 184.394531 82.21875 184.128906 82.617188 183.941406 83.066406 C 183.753906 83.519531 183.664062 83.988281 183.664062 84.476562 L 183.664062 113.941406 C 183.664062 114.429688 183.757812 114.898438 183.945312 115.347656 C 184.132812 115.800781 184.398438 116.199219 184.742188 116.542969 C 185.085938 116.886719 185.484375 117.152344 185.9375 117.339844 C 186.386719 117.527344 186.855469 117.621094 187.34375 117.621094 Z M 187.34375 117.621094 "/></g><g clip-rule="nonzero" clip-path="url(#4f97aff6fc)"><path style=" stroke:none;fill-rule:nonzero;fill:#2a3472;fill-opacity:1;" d="M 227.855469 143.230469 L 227.855469 139.71875 L 212.863281 139.71875 C 212.753906 140.480469 212.609375 141.230469 212.433594 141.976562 C 212.253906 142.722656 212.046875 143.460938 211.804688 144.1875 C 211.558594 144.917969 211.285156 145.632812 210.980469 146.335938 C 210.671875 147.039062 210.335938 147.726562 209.96875 148.402344 C 209.597656 149.074219 209.203125 149.730469 208.777344 150.367188 C 208.347656 151.003906 207.894531 151.621094 207.414062 152.21875 C 206.933594 152.816406 206.425781 153.390625 205.890625 153.941406 C 205.359375 154.496094 204.800781 155.019531 204.222656 155.523438 C 203.640625 156.027344 203.042969 156.5 202.417969 156.949219 C 201.796875 157.398438 201.15625 157.816406 200.496094 158.210938 C 199.835938 158.601562 199.160156 158.960938 198.46875 159.292969 C 197.773438 159.625 197.070312 159.921875 196.351562 160.191406 C 195.632812 160.457031 194.902344 160.695312 194.164062 160.898438 C 193.421875 161.101562 192.675781 161.269531 191.921875 161.40625 C 191.164062 161.542969 190.40625 161.644531 189.640625 161.710938 C 188.878906 161.78125 188.113281 161.816406 187.34375 161.816406 C 186.578125 161.816406 185.8125 161.78125 185.046875 161.710938 C 184.285156 161.644531 183.523438 161.542969 182.769531 161.40625 C 182.015625 161.269531 181.265625 161.101562 180.527344 160.898438 C 179.789062 160.695312 179.058594 160.457031 178.339844 160.191406 C 177.621094 159.921875 176.914062 159.625 176.222656 159.292969 C 175.53125 158.960938 174.855469 158.601562 174.195312 158.210938 C 173.535156 157.816406 172.894531 157.398438 172.273438 156.949219 C 171.648438 156.5 171.046875 156.027344 170.46875 155.523438 C 169.886719 155.019531 169.332031 154.496094 168.796875 153.941406 C 168.265625 153.390625 167.757812 152.816406 167.277344 152.21875 C 166.796875 151.621094 166.339844 151.003906 165.914062 150.367188 C 165.488281 149.730469 165.089844 149.074219 164.722656 148.402344 C 164.355469 147.726562 164.019531 147.039062 163.710938 146.335938 C 163.40625 145.632812 163.128906 144.917969 162.886719 144.1875 C 162.644531 143.460938 162.433594 142.722656 162.257812 141.976562 C 162.082031 141.230469 161.9375 140.480469 161.828125 139.71875 L 146.835938 139.71875 L 146.835938 143.230469 C 146.835938 143.777344 146.632812 144.234375 146.226562 144.597656 L 139.824219 150.375 L 143.605469 159.496094 L 155.617188 158.882812 C 156.164062 158.855469 156.628906 159.035156 157.015625 159.417969 L 163.960938 166.367188 C 164.347656 166.753906 164.527344 167.21875 164.5 167.761719 L 163.886719 179.777344 L 173.003906 183.554688 L 181.066406 174.625 C 181.433594 174.222656 181.886719 174.019531 182.433594 174.019531 L 192.257812 174.019531 C 192.804688 174.019531 193.257812 174.222656 193.625 174.625 L 201.683594 183.554688 L 210.804688 179.777344 L 210.191406 167.761719 C 210.164062 167.21875 210.34375 166.753906 210.726562 166.367188 L 217.675781 159.421875 C 218.0625 159.035156 218.527344 158.855469 219.070312 158.882812 L 231.085938 159.496094 L 234.863281 150.375 L 228.464844 144.597656 C 228.058594 144.234375 227.855469 143.777344 227.855469 143.230469 Z M 165.210938 160.777344 L 162.605469 158.171875 L 165.210938 155.566406 L 167.8125 158.171875 Z M 189.1875 169.183594 L 185.503906 169.183594 L 185.503906 165.5 L 189.1875 165.5 Z M 209.480469 160.777344 L 206.875 158.171875 L 209.480469 155.566406 L 212.085938 158.171875 Z M 209.480469 160.777344 "/></g><g clip-rule="nonzero" clip-path="url(#9f2d1a7f52)"><path style=" stroke:none;fill-rule:nonzero;fill:#2a3472;fill-opacity:1;" d="M 236.140625 130.511719 L 138.546875 130.511719 C 138.183594 130.511719 137.828125 130.582031 137.492188 130.722656 C 137.152344 130.863281 136.855469 131.0625 136.59375 131.320312 C 136.335938 131.582031 136.136719 131.878906 135.996094 132.21875 C 135.855469 132.554688 135.785156 132.910156 135.785156 133.273438 C 135.785156 133.640625 135.855469 133.992188 135.996094 134.332031 C 136.136719 134.671875 136.335938 134.96875 136.59375 135.226562 C 136.855469 135.488281 137.152344 135.6875 137.492188 135.828125 C 137.828125 135.964844 138.183594 136.035156 138.546875 136.035156 L 236.140625 136.035156 C 236.507812 136.035156 236.859375 135.964844 237.199219 135.828125 C 237.539062 135.6875 237.835938 135.488281 238.09375 135.226562 C 238.355469 134.96875 238.554688 134.671875 238.695312 134.332031 C 238.835938 133.992188 238.902344 133.640625 238.902344 133.273438 C 238.902344 132.910156 238.835938 132.554688 238.695312 132.21875 C 238.554688 131.878906 238.355469 131.582031 238.09375 131.320312 C 237.835938 131.0625 237.539062 130.863281 237.199219 130.722656 C 236.859375 130.582031 236.507812 130.511719 236.140625 130.511719 Z M 236.140625 130.511719 "/></g><g style="fill:#ff8336;fill-opacity:1;"><g transform="translate(104.363332, 168.800993)"><path style="stroke:none" d="M 3.46875 -19.609375 C 4.144531 -19.609375 4.703125 -19.679688 5.140625 -19.828125 C 5.578125 -19.984375 5.9375 -20.1875 6.21875 -20.4375 C 6.5 -20.695312 6.722656 -21 6.890625 -21.34375 C 7.054688 -21.6875 7.207031 -22.050781 7.34375 -22.4375 L 9.703125 -22.4375 L 9.703125 0 L 6.1875 0 L 6.1875 -17.109375 L 3.46875 -17.109375 Z M 3.46875 -19.609375 "/></g></g><g style="fill:#ff8336;fill-opacity:1;"><g transform="translate(117.371709, 168.800993)"><path style="stroke:none" d="M 11.640625 -5.578125 C 11.640625 -3.671875 11.195312 -2.222656 10.3125 -1.234375 C 9.4375 -0.242188 8.082031 0.25 6.25 0.25 C 4.519531 0.25 3.210938 -0.234375 2.328125 -1.203125 C 1.441406 -2.171875 1 -3.566406 1 -5.390625 L 1 -5.953125 L 4.328125 -5.953125 L 4.328125 -5.15625 C 4.328125 -4.34375 4.488281 -3.769531 4.8125 -3.4375 C 5.144531 -3.113281 5.59375 -2.953125 6.15625 -2.953125 C 6.769531 -2.953125 7.25 -3.144531 7.59375 -3.53125 C 7.9375 -3.914062 8.109375 -4.640625 8.109375 -5.703125 L 8.109375 -9.8125 C 7.484375 -8.476562 6.394531 -7.8125 4.84375 -7.8125 C 3.539062 -7.8125 2.5625 -8.25 1.90625 -9.125 C 1.25 -10.007812 0.921875 -11.285156 0.921875 -12.953125 L 0.921875 -17.046875 C 0.921875 -18.859375 1.378906 -20.25 2.296875 -21.21875 C 3.222656 -22.195312 4.550781 -22.6875 6.28125 -22.6875 C 8.007812 -22.6875 9.332031 -22.195312 10.25 -21.21875 C 11.175781 -20.25 11.640625 -18.859375 11.640625 -17.046875 Z M 6.28125 -11.03125 C 6.832031 -11.03125 7.273438 -11.191406 7.609375 -11.515625 C 7.941406 -11.847656 8.109375 -12.421875 8.109375 -13.234375 L 8.109375 -17.265625 C 8.109375 -18.078125 7.941406 -18.644531 7.609375 -18.96875 C 7.273438 -19.289062 6.832031 -19.453125 6.28125 -19.453125 C 5.726562 -19.453125 5.285156 -19.289062 4.953125 -18.96875 C 4.617188 -18.644531 4.453125 -18.078125 4.453125 -17.265625 L 4.453125 -13.234375 C 4.453125 -12.421875 4.617188 -11.847656 4.953125 -11.515625 C 5.285156 -11.191406 5.726562 -11.03125 6.28125 -11.03125 Z M 6.28125 -11.03125 "/></g></g><g style="fill:#ff8336;fill-opacity:1;"><g transform="translate(243.962018, 168.800993)"><path style="stroke:none" d="M 11.640625 -5.578125 C 11.640625 -3.671875 11.195312 -2.222656 10.3125 -1.234375 C 9.4375 -0.242188 8.082031 0.25 6.25 0.25 C 4.519531 0.25 3.210938 -0.234375 2.328125 -1.203125 C 1.441406 -2.171875 1 -3.566406 1 -5.390625 L 1 -5.953125 L 4.328125 -5.953125 L 4.328125 -5.15625 C 4.328125 -4.34375 4.488281 -3.769531 4.8125 -3.4375 C 5.144531 -3.113281 5.59375 -2.953125 6.15625 -2.953125 C 6.769531 -2.953125 7.25 -3.144531 7.59375 -3.53125 C 7.9375 -3.914062 8.109375 -4.640625 8.109375 -5.703125 L 8.109375 -9.8125 C 7.484375 -8.476562 6.394531 -7.8125 4.84375 -7.8125 C 3.539062 -7.8125 2.5625 -8.25 1.90625 -9.125 C 1.25 -10.007812 0.921875 -11.285156 0.921875 -12.953125 L 0.921875 -17.046875 C 0.921875 -18.859375 1.378906 -20.25 2.296875 -21.21875 C 3.222656 -22.195312 4.550781 -22.6875 6.28125 -22.6875 C 8.007812 -22.6875 9.332031 -22.195312 10.25 -21.21875 C 11.175781 -20.25 11.640625 -18.859375 11.640625 -17.046875 Z M 6.28125 -11.03125 C 6.832031 -11.03125 7.273438 -11.191406 7.609375 -11.515625 C 7.941406 -11.847656 8.109375 -12.421875 8.109375 -13.234375 L 8.109375 -17.265625 C 8.109375 -18.078125 7.941406 -18.644531 7.609375 -18.96875 C 7.273438 -19.289062 6.832031 -19.453125 6.28125 -19.453125 C 5.726562 -19.453125 5.285156 -19.289062 4.953125 -18.96875 C 4.617188 -18.644531 4.453125 -18.078125 4.453125 -17.265625 L 4.453125 -13.234375 C 4.453125 -12.421875 4.617188 -11.847656 4.953125 -11.515625 C 5.285156 -11.191406 5.726562 -11.03125 6.28125 -11.03125 Z M 6.28125 -11.03125 "/></g></g><g style="fill:#ff8336;fill-opacity:1;"><g transform="translate(256.970395, 168.800993)"><path style="stroke:none" d="M 11.859375 -5.390625 C 11.859375 -3.566406 11.382812 -2.171875 10.4375 -1.203125 C 9.5 -0.234375 8.132812 0.25 6.34375 0.25 C 4.550781 0.25 3.179688 -0.234375 2.234375 -1.203125 C 1.296875 -2.171875 0.828125 -3.566406 0.828125 -5.390625 L 0.828125 -7.140625 C 0.828125 -8.234375 1 -9.179688 1.34375 -9.984375 C 1.6875 -10.785156 2.242188 -11.398438 3.015625 -11.828125 C 1.554688 -12.617188 0.828125 -14.125 0.828125 -16.34375 L 0.828125 -17.046875 C 0.828125 -18.859375 1.296875 -20.25 2.234375 -21.21875 C 3.179688 -22.195312 4.550781 -22.6875 6.34375 -22.6875 C 8.132812 -22.6875 9.5 -22.195312 10.4375 -21.21875 C 11.382812 -20.25 11.859375 -18.859375 11.859375 -17.046875 L 11.859375 -16.34375 C 11.859375 -14.144531 11.128906 -12.640625 9.671875 -11.828125 C 10.441406 -11.398438 11 -10.785156 11.34375 -9.984375 C 11.6875 -9.179688 11.859375 -8.234375 11.859375 -7.140625 Z M 4.359375 -5.484375 C 4.359375 -4.472656 4.550781 -3.796875 4.9375 -3.453125 C 5.320312 -3.117188 5.789062 -2.953125 6.34375 -2.953125 C 6.894531 -2.953125 7.359375 -3.117188 7.734375 -3.453125 C 8.109375 -3.796875 8.304688 -4.472656 8.328125 -5.484375 L 8.328125 -7.5625 C 8.328125 -8.457031 8.148438 -9.101562 7.796875 -9.5 C 7.453125 -9.894531 6.96875 -10.09375 6.34375 -10.09375 C 5.726562 -10.09375 5.242188 -9.894531 4.890625 -9.5 C 4.535156 -9.101562 4.359375 -8.457031 4.359375 -7.5625 Z M 4.359375 -15.671875 C 4.359375 -14.773438 4.546875 -14.15625 4.921875 -13.8125 C 5.296875 -13.46875 5.769531 -13.296875 6.34375 -13.296875 C 6.894531 -13.296875 7.363281 -13.46875 7.75 -13.8125 C 8.132812 -14.15625 8.328125 -14.773438 8.328125 -15.671875 L 8.328125 -16.921875 C 8.328125 -17.921875 8.132812 -18.597656 7.75 -18.953125 C 7.363281 -19.304688 6.894531 -19.484375 6.34375 -19.484375 C 5.789062 -19.484375 5.320312 -19.304688 4.9375 -18.953125 C 4.550781 -18.597656 4.359375 -17.921875 4.359375 -16.921875 Z M 4.359375 -15.671875 "/></g></g><path style="fill:none;stroke-width:8;stroke-linecap:round;stroke-linejoin:miter;stroke:#2a3472;stroke-opacity:1;stroke-miterlimit:4;" d="M 3.998085 4.001237 L 149.488499 4.001237 " transform="matrix(0.747633,0,0,0.747633,35.667149,180.852293)"/><path style="fill:none;stroke-width:8;stroke-linecap:round;stroke-linejoin:miter;stroke:#2a3472;stroke-opacity:1;stroke-miterlimit:4;" d="M 4.001896 4.001237 L 149.492309 4.001237 " transform="matrix(0.747633,0,0,0.747633,224.215082,180.852293)"/></g></svg>