<svg xmlns="http://www.w3.org/2000/svg" xmlns:xlink="http://www.w3.org/1999/xlink" width="500" zoomAndPan="magnify" viewBox="0 0 375 374.999991" height="500" preserveAspectRatio="xMidYMid meet" version="1.2"><defs><clipPath id="7875ac5d57"><path d="M 43.65625 186.21875 L 331.492188 186.21875 L 331.492188 264.691406 L 43.65625 264.691406 Z M 43.65625 186.21875 "/></clipPath><clipPath id="9aa4a0afaa"><path d="M 320.941406 186.21875 L 54.054688 186.21875 L 43.65625 196.621094 L 43.65625 254.292969 L 54.054688 264.691406 L 320.941406 264.691406 L 331.34375 254.292969 L 331.34375 196.621094 Z M 320.941406 186.21875 "/></clipPath><clipPath id="4a908cebf3"><path d="M 43.664062 186.21875 L 331.65625 186.21875 L 331.65625 264.96875 L 43.664062 264.96875 Z M 43.664062 186.21875 "/></clipPath><clipPath id="713d637eba"><path d="M 320.9375 186.21875 L 54.0625 186.21875 L 43.664062 196.617188 L 43.664062 254.289062 L 54.0625 264.6875 L 320.9375 264.6875 L 331.335938 254.289062 L 331.335938 196.617188 Z M 320.9375 186.21875 "/></clipPath><clipPath id="ae162de289"><path d="M 82.433594 52.558594 L 292.433594 52.558594 L 292.433594 176.308594 L 82.433594 176.308594 Z M 82.433594 52.558594 "/></clipPath><clipPath id="b1b18dc5cd"><path d="M 114.203125 84.230469 L 260.453125 84.230469 L 260.453125 177.980469 L 114.203125 177.980469 Z M 114.203125 84.230469 "/></clipPath><clipPath id="3c64c1b5fe"><path d="M 72.132812 275.191406 L 82.632812 275.191406 L 82.632812 285.691406 L 72.132812 285.691406 Z M 72.132812 275.191406 "/></clipPath><clipPath id="c8698f4302"><path d="M 292.367188 275.191406 L 302.867188 275.191406 L 302.867188 285.691406 L 292.367188 285.691406 Z M 292.367188 275.191406 "/></clipPath><clipPath id="ddbd1f7072"><path d="M 184 97.566406 L 191 97.566406 L 191 127 L 184 127 Z M 184 97.566406 "/></clipPath><clipPath id="6b1085c6c2"><path d="M 150 143 L 225 143 L 225 177.816406 L 150 177.816406 Z M 150 143 "/></clipPath><clipPath id="d1cefbd2ab"><path d="M 147.164062 136 L 228 136 L 228 141 L 147.164062 141 Z M 147.164062 136 "/></clipPath></defs><g id="cccb187fe9"><g clip-rule="nonzero" clip-path="url(#7875ac5d57)"><g clip-rule="nonzero" clip-path="url(#9aa4a0afaa)"><path style=" stroke:none;fill-rule:nonzero;fill:#ff8336;fill-opacity:1;" d="M 43.65625 186.21875 L 331.492188 186.21875 L 331.492188 264.691406 L 43.65625 264.691406 Z M 43.65625 186.21875 "/></g></g><g clip-rule="nonzero" clip-path="url(#4a908cebf3)"><g clip-rule="nonzero" clip-path="url(#713d637eba)"><path style="fill:none;stroke-width:16;stroke-linecap:butt;stroke-linejoin:miter;stroke:#2a3472;stroke-opacity:1;stroke-miterlimit:4;" d="M 369.698641 -0.00243863 L 13.865284 -0.00243863 L 0.000699823 13.862146 L 0.000699823 90.757984 L 13.865284 104.622568 L 369.698641 104.622568 L 383.563225 90.757984 L 383.563225 13.862146 Z M 369.698641 -0.00243863 " transform="matrix(0.75,0,0,0.75,43.663538,186.220579)"/></g></g><g style="fill:#2a3472;fill-opacity:1;"><g transform="translate(91.379186, 289.417863)"><path style="stroke:none" d="M 1.484375 -16.328125 L 14.53125 -16.328125 L 14.53125 -12.796875 L 6.046875 -12.796875 L 6.046875 -9.9375 L 12.234375 -9.9375 L 12.234375 -6.390625 L 6.046875 -6.390625 L 6.046875 -3.53125 L 14.53125 -3.53125 L 14.53125 0 L 1.484375 0 Z M 1.484375 -16.328125 "/></g></g><g style="fill:#2a3472;fill-opacity:1;"><g transform="translate(109.297085, 289.417863)"><path style="stroke:none" d="M 1.484375 0 L 1.484375 -16.328125 L 5.015625 -16.328125 L 12.3125 -7.8125 L 12.3125 -16.328125 L 16.859375 -16.328125 L 16.859375 0 L 13.328125 0 L 6.046875 -8.515625 L 6.046875 0 Z M 1.484375 0 "/></g></g><g style="fill:#2a3472;fill-opacity:1;"><g transform="translate(130.154582, 289.417863)"><path style="stroke:none" d="M 9.65625 -16.71875 C 11 -16.71875 12.195312 -16.613281 13.25 -16.40625 C 14.3125 -16.195312 15.257812 -15.878906 16.09375 -15.453125 L 16.09375 -11.5625 C 15.164062 -11.988281 14.273438 -12.273438 13.421875 -12.421875 C 12.578125 -12.578125 11.601562 -12.65625 10.5 -12.65625 C 8.894531 -12.65625 7.648438 -12.265625 6.765625 -11.484375 C 5.890625 -10.710938 5.453125 -9.609375 5.453125 -8.171875 C 5.453125 -6.734375 5.90625 -5.628906 6.8125 -4.859375 C 7.71875 -4.085938 8.945312 -3.703125 10.5 -3.703125 C 10.707031 -3.703125 10.898438 -3.703125 11.078125 -3.703125 C 11.253906 -3.703125 11.4375 -3.707031 11.625 -3.71875 L 11.625 -6.25 L 9.515625 -6.25 L 9.515625 -9.75 L 16.09375 -9.75 L 16.09375 -0.875 C 15.28125 -0.550781 14.550781 -0.296875 13.90625 -0.109375 C 13.257812 0.078125 12.609375 0.203125 11.953125 0.265625 C 11.296875 0.328125 10.53125 0.359375 9.65625 0.359375 C 7.90625 0.359375 6.367188 0.00390625 5.046875 -0.703125 C 3.734375 -1.410156 2.71875 -2.398438 2 -3.671875 C 1.28125 -4.953125 0.921875 -6.453125 0.921875 -8.171875 C 0.921875 -9.890625 1.28125 -11.390625 2 -12.671875 C 2.71875 -13.953125 3.734375 -14.945312 5.046875 -15.65625 C 6.367188 -16.363281 7.90625 -16.71875 9.65625 -16.71875 Z M 9.65625 -16.71875 "/></g></g><g style="fill:#2a3472;fill-opacity:1;"><g transform="translate(150.200189, 289.417863)"><path style="stroke:none" d="M 1.484375 -16.328125 L 6.046875 -16.328125 L 6.046875 0 L 1.484375 0 Z M 1.484375 -16.328125 "/></g></g><g style="fill:#2a3472;fill-opacity:1;"><g transform="translate(160.223164, 289.417863)"><path style="stroke:none" d="M 1.484375 0 L 1.484375 -16.328125 L 5.015625 -16.328125 L 12.3125 -7.8125 L 12.3125 -16.328125 L 16.859375 -16.328125 L 16.859375 0 L 13.328125 0 L 6.046875 -8.515625 L 6.046875 0 Z M 1.484375 0 "/></g></g><g style="fill:#2a3472;fill-opacity:1;"><g transform="translate(181.080661, 289.417863)"><path style="stroke:none" d="M 1.484375 -16.328125 L 14.53125 -16.328125 L 14.53125 -12.796875 L 6.046875 -12.796875 L 6.046875 -9.9375 L 12.234375 -9.9375 L 12.234375 -6.390625 L 6.046875 -6.390625 L 6.046875 -3.53125 L 14.53125 -3.53125 L 14.53125 0 L 1.484375 0 Z M 1.484375 -16.328125 "/></g></g><g style="fill:#2a3472;fill-opacity:1;"><g transform="translate(198.99856, 289.417863)"><path style="stroke:none" d="M 1.484375 -16.328125 L 14.53125 -16.328125 L 14.53125 -12.796875 L 6.046875 -12.796875 L 6.046875 -9.9375 L 12.234375 -9.9375 L 12.234375 -6.390625 L 6.046875 -6.390625 L 6.046875 -3.53125 L 14.53125 -3.53125 L 14.53125 0 L 1.484375 0 Z M 1.484375 -16.328125 "/></g></g><g style="fill:#2a3472;fill-opacity:1;"><g transform="translate(216.916459, 289.417863)"><path style="stroke:none" d="M 1.484375 0 L 1.484375 -16.328125 L 9.375 -16.328125 C 11.019531 -16.328125 12.289062 -15.867188 13.1875 -14.953125 C 14.082031 -14.035156 14.53125 -12.800781 14.53125 -11.25 C 14.53125 -9.351562 13.882812 -7.957031 12.59375 -7.0625 L 15.515625 0 L 10.75 0 L 8.203125 -6.15625 L 6.046875 -6.15625 L 6.046875 0 Z M 6.046875 -9.75 L 8.375 -9.75 C 9.4375 -9.75 9.96875 -10.25 9.96875 -11.25 C 9.96875 -12.28125 9.4375 -12.796875 8.375 -12.796875 L 6.046875 -12.796875 Z M 6.046875 -9.75 "/></g></g><g style="fill:#2a3472;fill-opacity:1;"><g transform="translate(235.198314, 289.417863)"><path style="stroke:none" d="M 1.484375 -16.328125 L 6.046875 -16.328125 L 6.046875 0 L 1.484375 0 Z M 1.484375 -16.328125 "/></g></g><g style="fill:#2a3472;fill-opacity:1;"><g transform="translate(245.221289, 289.417863)"><path style="stroke:none" d="M 1.484375 0 L 1.484375 -16.328125 L 5.015625 -16.328125 L 12.3125 -7.8125 L 12.3125 -16.328125 L 16.859375 -16.328125 L 16.859375 0 L 13.328125 0 L 6.046875 -8.515625 L 6.046875 0 Z M 1.484375 0 "/></g></g><g style="fill:#2a3472;fill-opacity:1;"><g transform="translate(266.078786, 289.417863)"><path style="stroke:none" d="M 9.65625 -16.71875 C 11 -16.71875 12.195312 -16.613281 13.25 -16.40625 C 14.3125 -16.195312 15.257812 -15.878906 16.09375 -15.453125 L 16.09375 -11.5625 C 15.164062 -11.988281 14.273438 -12.273438 13.421875 -12.421875 C 12.578125 -12.578125 11.601562 -12.65625 10.5 -12.65625 C 8.894531 -12.65625 7.648438 -12.265625 6.765625 -11.484375 C 5.890625 -10.710938 5.453125 -9.609375 5.453125 -8.171875 C 5.453125 -6.734375 5.90625 -5.628906 6.8125 -4.859375 C 7.71875 -4.085938 8.945312 -3.703125 10.5 -3.703125 C 10.707031 -3.703125 10.898438 -3.703125 11.078125 -3.703125 C 11.253906 -3.703125 11.4375 -3.707031 11.625 -3.71875 L 11.625 -6.25 L 9.515625 -6.25 L 9.515625 -9.75 L 16.09375 -9.75 L 16.09375 -0.875 C 15.28125 -0.550781 14.550781 -0.296875 13.90625 -0.109375 C 13.257812 0.078125 12.609375 0.203125 11.953125 0.265625 C 11.296875 0.328125 10.53125 0.359375 9.65625 0.359375 C 7.90625 0.359375 6.367188 0.00390625 5.046875 -0.703125 C 3.734375 -1.410156 2.71875 -2.398438 2 -3.671875 C 1.28125 -4.953125 0.921875 -6.453125 0.921875 -8.171875 C 0.921875 -9.890625 1.28125 -11.390625 2 -12.671875 C 2.71875 -13.953125 3.734375 -14.945312 5.046875 -15.65625 C 6.367188 -16.363281 7.90625 -16.71875 9.65625 -16.71875 Z M 9.65625 -16.71875 "/></g></g><path style="fill:none;stroke-width:6;stroke-linecap:round;stroke-linejoin:miter;stroke:#2a3472;stroke-opacity:1;stroke-miterlimit:4;" d="M 2.999045 2.999115 L 222.080304 2.999115 " transform="matrix(0.74974,0,0,0.74974,103.095247,296.192851)"/><g clip-rule="nonzero" clip-path="url(#ae162de289)"><path style=" stroke:none;fill-rule:nonzero;fill:#2a3472;fill-opacity:1;" d="M 187.441406 238.335938 C 142.90625 238.335938 106.671875 202.097656 106.671875 157.566406 C 106.671875 113.03125 142.90625 76.796875 187.441406 76.796875 C 231.976562 76.796875 268.210938 113.03125 268.210938 157.566406 C 268.210938 202.097656 231.976562 238.335938 187.441406 238.335938 Z M 275.234375 157.566406 C 275.234375 156.53125 275.191406 155.5 275.15625 154.472656 L 292.441406 149.363281 C 292.152344 145.621094 291.671875 141.9375 291 138.3125 L 272.984375 137.851562 C 272.519531 135.824219 272 133.824219 271.402344 131.855469 L 286.753906 122.457031 C 285.507812 118.941406 284.09375 115.5 282.496094 112.164062 L 264.976562 116.378906 C 264.003906 114.554688 262.960938 112.769531 261.867188 111.023438 L 274.257812 97.976562 C 272.144531 94.90625 269.867188 91.964844 267.449219 89.136719 L 251.65625 97.726562 C 250.246094 96.214844 248.789062 94.757812 247.28125 93.355469 L 255.867188 77.558594 C 253.042969 75.140625 250.097656 72.863281 247.03125 70.75 L 233.988281 83.136719 C 232.238281 82.042969 230.453125 81.003906 228.625 80.03125 L 232.84375 62.511719 C 229.503906 60.914062 226.066406 59.5 222.546875 58.253906 L 213.148438 73.609375 C 211.183594 73.003906 209.179688 72.488281 207.15625 72.023438 L 206.695312 54.007812 C 203.070312 53.335938 199.386719 52.855469 195.644531 52.5625 L 190.535156 69.851562 C 189.503906 69.8125 188.476562 69.773438 187.441406 69.773438 C 186.40625 69.773438 185.375 69.8125 184.351562 69.851562 L 179.238281 52.5625 C 175.496094 52.855469 171.8125 53.335938 168.1875 54.007812 L 167.726562 72.023438 C 165.703125 72.488281 163.699219 73.003906 161.734375 73.609375 L 152.335938 58.253906 C 148.816406 59.5 145.378906 60.914062 142.042969 62.511719 L 146.257812 80.03125 C 144.429688 81.003906 142.644531 82.042969 140.898438 83.136719 L 127.851562 70.75 C 124.785156 72.863281 121.839844 75.140625 119.015625 77.558594 L 127.601562 93.355469 C 126.09375 94.757812 124.632812 96.214844 123.230469 97.726562 L 107.433594 89.136719 C 105.015625 91.964844 102.738281 94.90625 100.625 97.976562 L 113.015625 111.023438 C 111.921875 112.769531 110.882812 114.550781 109.90625 116.378906 L 92.390625 112.164062 C 90.789062 115.5 89.375 118.941406 88.128906 122.457031 L 103.484375 131.855469 C 102.882812 133.824219 102.367188 135.824219 101.898438 137.851562 L 83.886719 138.3125 C 83.214844 141.9375 82.730469 145.621094 82.441406 149.363281 L 99.730469 154.472656 C 99.691406 155.5 99.648438 156.53125 99.648438 157.566406 C 99.648438 158.601562 99.691406 159.628906 99.730469 160.65625 L 82.441406 165.769531 C 82.730469 169.511719 83.214844 173.191406 83.886719 176.816406 L 101.898438 177.28125 C 102.363281 179.304688 102.882812 181.308594 103.484375 183.273438 L 88.128906 192.671875 C 89.375 196.191406 90.789062 199.628906 92.390625 202.964844 L 109.90625 198.75 C 110.878906 200.582031 111.921875 202.363281 113.015625 204.113281 L 100.625 217.152344 C 102.738281 220.222656 105.015625 223.164062 107.433594 225.992188 L 123.226562 217.40625 C 124.632812 218.910156 126.09375 220.371094 127.601562 221.78125 L 119.015625 237.574219 C 121.839844 239.988281 124.785156 242.265625 127.851562 244.378906 L 140.894531 231.992188 C 142.644531 233.085938 144.429688 234.125 146.257812 235.101562 L 142.042969 252.617188 C 145.378906 254.214844 148.816406 255.632812 152.335938 256.875 L 161.734375 241.523438 C 163.699219 242.125 165.703125 242.640625 167.726562 243.105469 L 168.1875 261.121094 C 171.8125 261.792969 175.496094 262.273438 179.238281 262.566406 L 184.351562 245.277344 C 185.375 245.316406 186.40625 245.355469 187.441406 245.355469 C 188.476562 245.355469 189.503906 245.316406 190.535156 245.277344 L 195.644531 262.566406 C 199.386719 262.273438 203.070312 261.792969 206.695312 261.121094 L 207.15625 243.105469 C 209.179688 242.640625 211.179688 242.125 213.148438 241.523438 L 222.546875 256.875 C 226.066406 255.632812 229.503906 254.214844 232.84375 252.617188 L 228.625 235.101562 C 230.453125 234.125 232.238281 233.085938 233.988281 231.992188 L 247.03125 244.378906 C 250.097656 242.265625 253.042969 239.988281 255.867188 237.574219 L 247.28125 221.777344 C 248.789062 220.371094 250.25 218.910156 251.65625 217.40625 L 267.449219 225.992188 C 269.867188 223.164062 272.144531 220.222656 274.257812 217.152344 L 261.871094 204.113281 C 262.960938 202.363281 264.003906 200.582031 264.976562 198.75 L 282.496094 202.964844 C 284.09375 199.628906 285.507812 196.191406 286.753906 192.671875 L 271.402344 183.273438 C 272 181.308594 272.519531 179.304688 272.984375 177.28125 L 291 176.816406 C 291.671875 173.191406 292.152344 169.511719 292.441406 165.769531 L 275.15625 160.65625 C 275.191406 159.628906 275.234375 158.601562 275.234375 157.566406 "/></g><g clip-rule="nonzero" clip-path="url(#b1b18dc5cd)"><path style=" stroke:none;fill-rule:nonzero;fill:#2a3472;fill-opacity:1;" d="M 187.328125 230.480469 C 146.925781 230.480469 114.203125 197.527344 114.203125 157.355469 C 114.203125 117.179688 146.925781 84.230469 187.328125 84.230469 C 227.726562 84.230469 260.453125 116.953125 260.453125 157.355469 C 260.453125 197.753906 227.5 230.480469 187.328125 230.480469 Z M 187.328125 88.742188 C 149.410156 88.742188 118.714844 119.4375 118.714844 157.355469 C 118.714844 195.269531 149.410156 225.964844 187.328125 225.964844 C 225.242188 225.964844 255.9375 195.269531 255.9375 157.355469 C 255.9375 119.4375 225.019531 88.742188 187.328125 88.742188 Z M 187.328125 88.742188 "/></g><g clip-rule="nonzero" clip-path="url(#3c64c1b5fe)"><path style=" stroke:none;fill-rule:nonzero;fill:#2a3472;fill-opacity:1;" d="M 82.632812 280.441406 C 82.632812 280.789062 82.597656 281.128906 82.53125 281.46875 C 82.464844 281.804688 82.363281 282.132812 82.230469 282.453125 C 82.101562 282.769531 81.9375 283.074219 81.746094 283.359375 C 81.554688 283.644531 81.335938 283.910156 81.09375 284.15625 C 80.851562 284.398438 80.585938 284.617188 80.296875 284.808594 C 80.011719 285 79.710938 285.160156 79.390625 285.292969 C 79.074219 285.425781 78.742188 285.523438 78.40625 285.59375 C 78.066406 285.660156 77.726562 285.691406 77.382812 285.691406 C 77.035156 285.691406 76.695312 285.660156 76.359375 285.59375 C 76.019531 285.523438 75.691406 285.425781 75.371094 285.292969 C 75.054688 285.160156 74.75 285 74.464844 284.808594 C 74.179688 284.617188 73.914062 284.398438 73.667969 284.15625 C 73.425781 283.910156 73.207031 283.644531 73.015625 283.359375 C 72.824219 283.074219 72.664062 282.769531 72.53125 282.453125 C 72.398438 282.132812 72.300781 281.804688 72.234375 281.46875 C 72.164062 281.128906 72.132812 280.789062 72.132812 280.441406 C 72.132812 280.097656 72.164062 279.757812 72.234375 279.417969 C 72.300781 279.082031 72.398438 278.753906 72.53125 278.433594 C 72.664062 278.117188 72.824219 277.8125 73.015625 277.527344 C 73.207031 277.238281 73.425781 276.972656 73.667969 276.730469 C 73.914062 276.488281 74.179688 276.269531 74.464844 276.078125 C 74.75 275.886719 75.054688 275.722656 75.371094 275.59375 C 75.691406 275.460938 76.019531 275.359375 76.359375 275.292969 C 76.695312 275.226562 77.035156 275.191406 77.382812 275.191406 C 77.726562 275.191406 78.066406 275.226562 78.40625 275.292969 C 78.742188 275.359375 79.074219 275.460938 79.390625 275.59375 C 79.710938 275.722656 80.011719 275.886719 80.296875 276.078125 C 80.585938 276.269531 80.851562 276.488281 81.09375 276.730469 C 81.335938 276.972656 81.554688 277.238281 81.746094 277.527344 C 81.9375 277.8125 82.101562 278.117188 82.230469 278.433594 C 82.363281 278.753906 82.464844 279.082031 82.53125 279.417969 C 82.597656 279.757812 82.632812 280.097656 82.632812 280.441406 Z M 82.632812 280.441406 "/></g><g clip-rule="nonzero" clip-path="url(#c8698f4302)"><path style=" stroke:none;fill-rule:nonzero;fill:#2a3472;fill-opacity:1;" d="M 302.867188 280.441406 C 302.867188 280.789062 302.835938 281.128906 302.765625 281.46875 C 302.699219 281.804688 302.601562 282.132812 302.46875 282.453125 C 302.335938 282.769531 302.175781 283.074219 301.984375 283.359375 C 301.792969 283.644531 301.574219 283.910156 301.332031 284.15625 C 301.085938 284.398438 300.820312 284.617188 300.535156 284.808594 C 300.25 285 299.945312 285.160156 299.628906 285.292969 C 299.308594 285.425781 298.980469 285.523438 298.640625 285.59375 C 298.304688 285.660156 297.964844 285.691406 297.617188 285.691406 C 297.273438 285.691406 296.933594 285.660156 296.59375 285.59375 C 296.257812 285.523438 295.925781 285.425781 295.609375 285.292969 C 295.289062 285.160156 294.988281 285 294.703125 284.808594 C 294.414062 284.617188 294.148438 284.398438 293.90625 284.15625 C 293.664062 283.910156 293.445312 283.644531 293.253906 283.359375 C 293.0625 283.074219 292.898438 282.769531 292.769531 282.453125 C 292.636719 282.132812 292.535156 281.804688 292.46875 281.46875 C 292.402344 281.128906 292.367188 280.789062 292.367188 280.441406 C 292.367188 280.097656 292.402344 279.757812 292.46875 279.417969 C 292.535156 279.082031 292.636719 278.753906 292.769531 278.433594 C 292.898438 278.117188 293.0625 277.8125 293.253906 277.527344 C 293.445312 277.238281 293.664062 276.972656 293.90625 276.730469 C 294.148438 276.488281 294.414062 276.269531 294.703125 276.078125 C 294.988281 275.886719 295.289062 275.722656 295.609375 275.59375 C 295.925781 275.460938 296.257812 275.359375 296.59375 275.292969 C 296.933594 275.226562 297.273438 275.191406 297.617188 275.191406 C 297.964844 275.191406 298.304688 275.226562 298.640625 275.292969 C 298.980469 275.359375 299.308594 275.460938 299.628906 275.59375 C 299.945312 275.722656 300.25 275.886719 300.535156 276.078125 C 300.820312 276.269531 301.085938 276.488281 301.332031 276.730469 C 301.574219 276.972656 301.792969 277.238281 301.984375 277.527344 C 302.175781 277.8125 302.335938 278.117188 302.46875 278.433594 C 302.601562 278.753906 302.699219 279.082031 302.765625 279.417969 C 302.835938 279.757812 302.867188 280.097656 302.867188 280.441406 Z M 302.867188 280.441406 "/></g><g style="fill:#ffffff;fill-opacity:1;"><g transform="translate(57.109193, 249.606723)"><path style="stroke:none" d="M 28.078125 -48 L 36 -48 C 36.800781 -48 37.203125 -47.597656 37.203125 -46.796875 L 37.203125 -1.203125 C 37.203125 -0.398438 36.800781 0 36 0 L 30.421875 0 C 29.617188 0 29.21875 -0.398438 29.21875 -1.203125 L 29.21875 -28.203125 L 28.796875 -28.203125 L 22.859375 -1.078125 C 22.703125 -0.359375 22.265625 0 21.546875 0 L 18.59375 0 C 17.914062 0 17.476562 -0.359375 17.28125 -1.078125 L 11.34375 -28.203125 L 10.921875 -28.203125 L 10.921875 -1.203125 C 10.921875 -0.398438 10.519531 0 9.71875 0 L 4.203125 0 C 3.398438 0 3 -0.398438 3 -1.203125 L 3 -46.796875 C 3 -47.597656 3.398438 -48 4.203125 -48 L 12.125 -48 C 12.84375 -48 13.28125 -47.640625 13.4375 -46.921875 L 20.09375 -17.046875 L 26.765625 -46.921875 C 26.960938 -47.640625 27.398438 -48 28.078125 -48 Z M 28.078125 -48 "/></g></g><g style="fill:#ffffff;fill-opacity:1;"><g transform="translate(100.301355, 249.606723)"><path style="stroke:none" d="M 20.28125 -48 L 25.796875 -48 C 26.117188 -48 26.398438 -47.878906 26.640625 -47.640625 C 26.878906 -47.398438 27 -47.117188 27 -46.796875 L 27 -8.640625 C 27 -5.835938 26.269531 -3.695312 24.8125 -2.21875 C 23.351562 -0.738281 21.203125 0 18.359375 0 L 11.640625 0 C 8.835938 0 6.695312 -0.738281 5.21875 -2.21875 C 3.738281 -3.695312 3 -5.835938 3 -8.640625 L 3 -46.796875 C 3 -47.117188 3.117188 -47.398438 3.359375 -47.640625 C 3.597656 -47.878906 3.878906 -48 4.203125 -48 L 9.953125 -48 C 10.273438 -48 10.554688 -47.878906 10.796875 -47.640625 C 11.035156 -47.398438 11.15625 -47.117188 11.15625 -46.796875 L 11.15625 -10.3125 C 11.15625 -8.71875 11.957031 -7.921875 13.5625 -7.921875 L 16.6875 -7.921875 C 18.28125 -7.921875 19.078125 -8.71875 19.078125 -10.3125 L 19.078125 -46.796875 C 19.078125 -47.117188 19.195312 -47.398438 19.4375 -47.640625 C 19.675781 -47.878906 19.957031 -48 20.28125 -48 Z M 20.28125 -48 "/></g></g><g style="fill:#ffffff;fill-opacity:1;"><g transform="translate(133.295506, 249.606723)"><path style="stroke:none" d="M 21.421875 -48 L 27.65625 -48 C 28.300781 -48 28.625 -47.679688 28.625 -47.046875 L 28.625 -0.953125 C 28.625 -0.316406 28.300781 0 27.65625 0 L 21.71875 0 C 21.15625 0 20.796875 -0.257812 20.640625 -0.78125 L 11.453125 -26.40625 L 11.15625 -26.40625 L 11.15625 -0.953125 C 11.15625 -0.316406 10.835938 0 10.203125 0 L 3.953125 0 C 3.316406 0 3 -0.316406 3 -0.953125 L 3 -47.046875 C 3 -47.679688 3.316406 -48 3.953125 -48 L 9.90625 -48 C 10.457031 -48 10.816406 -47.738281 10.984375 -47.21875 L 20.09375 -21.71875 L 20.453125 -21.71875 L 20.453125 -47.046875 C 20.453125 -47.679688 20.773438 -48 21.421875 -48 Z M 21.421875 -48 "/></g></g><g style="fill:#ffffff;fill-opacity:1;"><g transform="translate(167.909338, 249.606723)"><path style="stroke:none" d="M 2.765625 -48 L 24.84375 -48 C 25.476562 -48 25.796875 -47.679688 25.796875 -47.046875 L 25.796875 -41.046875 C 25.796875 -40.398438 25.476562 -40.078125 24.84375 -40.078125 L 17.875 -40.078125 L 17.875 -0.953125 C 17.875 -0.316406 17.554688 0 16.921875 0 L 10.6875 0 C 10.039062 0 9.71875 -0.316406 9.71875 -0.953125 L 9.71875 -40.078125 L 2.765625 -40.078125 C 2.117188 -40.078125 1.796875 -40.398438 1.796875 -41.046875 L 1.796875 -47.046875 C 1.796875 -47.679688 2.117188 -48 2.765625 -48 Z M 2.765625 -48 "/></g></g><g style="fill:#ffffff;fill-opacity:1;"><g transform="translate(198.503948, 249.606723)"><path style="stroke:none" d="M 31.921875 0 L 25.5625 0 C 25.039062 0 24.71875 -0.28125 24.59375 -0.84375 L 22.921875 -9.59375 L 12.234375 -9.59375 L 10.625 -0.84375 C 10.5 -0.28125 10.175781 0 9.65625 0 L 3.234375 0 C 2.515625 0 2.253906 -0.335938 2.453125 -1.015625 L 12.421875 -47.15625 C 12.535156 -47.71875 12.875 -48 13.4375 -48 L 21.78125 -48 C 22.34375 -48 22.679688 -47.71875 22.796875 -47.15625 L 32.765625 -1.015625 C 32.878906 -0.335938 32.597656 0 31.921875 0 Z M 21.421875 -16.5625 L 17.578125 -37.5 L 13.734375 -16.5625 Z M 21.421875 -16.5625 "/></g></g><g style="fill:#ffffff;fill-opacity:1;"><g transform="translate(236.657094, 249.606723)"><path style="stroke:none" d="M 4.4375 -48 L 27 -48 C 27.957031 -48 28.257812 -47.519531 27.90625 -46.5625 L 12.953125 -7.921875 L 26.15625 -7.921875 C 26.800781 -7.921875 27.125 -7.597656 27.125 -6.953125 L 27.125 -1.015625 C 27.125 -0.421875 26.800781 -0.0820312 26.15625 0 L 2.8125 0 C 2.332031 0 2.023438 -0.140625 1.890625 -0.421875 C 1.753906 -0.703125 1.765625 -1.039062 1.921875 -1.4375 L 16.859375 -40.015625 L 4.4375 -40.015625 C 3.800781 -40.015625 3.484375 -40.335938 3.484375 -40.984375 L 3.484375 -46.984375 C 3.484375 -47.578125 3.800781 -47.914062 4.4375 -48 Z M 4.4375 -48 "/></g></g><g style="fill:#ffffff;fill-opacity:1;"><g transform="translate(270.071162, 249.606723)"><path style="stroke:none" d="M 3.953125 -48 L 10.203125 -48 C 10.835938 -48 11.15625 -47.679688 11.15625 -47.046875 L 11.15625 -0.953125 C 11.15625 -0.316406 10.835938 0 10.203125 0 L 3.953125 0 C 3.316406 0 3 -0.316406 3 -0.953125 L 3 -47.046875 C 3 -47.679688 3.316406 -48 3.953125 -48 Z M 3.953125 -48 "/></g></g><g style="fill:#ffffff;fill-opacity:1;"><g transform="translate(287.228395, 249.606723)"><path style="stroke:none" d="M 27.65625 -39.359375 L 27.65625 -24.71875 C 27.65625 -20.71875 26.195312 -18.078125 23.28125 -16.796875 L 27.421875 -1.078125 C 27.617188 -0.359375 27.335938 0 26.578125 0 L 20.34375 0 C 19.78125 0 19.4375 -0.28125 19.3125 -0.84375 L 15.296875 -16.078125 L 11.15625 -16.078125 L 11.15625 -0.953125 C 11.15625 -0.316406 10.835938 0 10.203125 0 L 3.953125 0 C 3.316406 0 3 -0.316406 3 -0.953125 L 3 -47.046875 C 3 -47.679688 3.316406 -48 3.953125 -48 L 19.015625 -48 C 21.859375 -48 24.007812 -47.269531 25.46875 -45.8125 C 26.925781 -44.351562 27.65625 -42.203125 27.65625 -39.359375 Z M 11.15625 -24 L 17.09375 -24 C 18.695312 -24 19.5 -24.800781 19.5 -26.40625 L 19.5 -37.6875 C 19.5 -39.28125 18.695312 -40.078125 17.09375 -40.078125 L 11.15625 -40.078125 Z M 11.15625 -24 "/></g></g><path style="fill:none;stroke-width:6;stroke-linecap:round;stroke-linejoin:miter;stroke:#2a3472;stroke-opacity:1;stroke-miterlimit:4;" d="M 2.998816 2.9984 L 166.321103 2.9984 " transform="matrix(0.748616,0,0,0.748616,124.00504,304.44285)"/><path style=" stroke:none;fill-rule:nonzero;fill:#2a3472;fill-opacity:1;" d="M 202.527344 126.3125 C 202.8125 126.3125 203.085938 126.257812 203.351562 126.148438 C 203.613281 126.039062 203.847656 125.882812 204.050781 125.679688 C 204.253906 125.476562 204.410156 125.246094 204.519531 124.980469 C 204.628906 124.714844 204.683594 124.441406 204.683594 124.15625 L 204.683594 102.582031 C 204.683594 102.296875 204.628906 102.023438 204.519531 101.757812 C 204.410156 101.492188 204.253906 101.261719 204.050781 101.058594 C 203.847656 100.855469 203.617188 100.699219 203.351562 100.589844 C 203.085938 100.480469 202.8125 100.425781 202.527344 100.425781 C 202.238281 100.425781 201.964844 100.480469 201.699219 100.589844 C 201.4375 100.699219 201.203125 100.855469 201 101.058594 C 200.796875 101.261719 200.640625 101.492188 200.53125 101.757812 C 200.421875 102.023438 200.367188 102.296875 200.367188 102.582031 L 200.367188 124.15625 C 200.367188 124.441406 200.421875 124.714844 200.53125 124.980469 C 200.640625 125.246094 200.796875 125.476562 201 125.679688 C 201.203125 125.882812 201.4375 126.039062 201.699219 126.148438 C 201.964844 126.257812 202.238281 126.3125 202.527344 126.3125 Z M 202.527344 126.3125 "/><path style=" stroke:none;fill-rule:nonzero;fill:#2a3472;fill-opacity:1;" d="M 172.324219 126.3125 C 172.609375 126.3125 172.886719 126.257812 173.148438 126.148438 C 173.414062 126.039062 173.644531 125.882812 173.847656 125.679688 C 174.050781 125.476562 174.207031 125.246094 174.316406 124.980469 C 174.425781 124.714844 174.480469 124.441406 174.480469 124.15625 L 174.480469 102.582031 C 174.480469 102.296875 174.425781 102.023438 174.316406 101.757812 C 174.207031 101.492188 174.050781 101.261719 173.847656 101.058594 C 173.648438 100.855469 173.414062 100.699219 173.148438 100.589844 C 172.886719 100.480469 172.609375 100.425781 172.324219 100.425781 C 172.039062 100.425781 171.761719 100.480469 171.5 100.589844 C 171.234375 100.699219 171 100.855469 170.796875 101.058594 C 170.597656 101.261719 170.441406 101.492188 170.332031 101.757812 C 170.222656 102.023438 170.167969 102.296875 170.167969 102.582031 L 170.167969 124.15625 C 170.167969 124.441406 170.222656 124.714844 170.332031 124.980469 C 170.441406 125.246094 170.597656 125.476562 170.800781 125.679688 C 171 125.882812 171.234375 126.039062 171.5 126.148438 C 171.761719 126.257812 172.039062 126.3125 172.324219 126.3125 Z M 172.324219 126.3125 "/><path style=" stroke:none;fill-rule:nonzero;fill:#2a3472;fill-opacity:1;" d="M 217.398438 117.855469 C 214.90625 113.515625 211.625 109.886719 207.558594 106.972656 L 207.558594 124.15625 C 207.558594 124.484375 207.527344 124.8125 207.460938 125.136719 C 207.398438 125.460938 207.300781 125.777344 207.175781 126.082031 C 207.050781 126.386719 206.894531 126.675781 206.710938 126.953125 C 206.527344 127.226562 206.320312 127.480469 206.085938 127.714844 C 205.851562 127.949219 205.597656 128.15625 205.320312 128.339844 C 205.046875 128.523438 204.757812 128.679688 204.453125 128.804688 C 204.144531 128.933594 203.832031 129.027344 203.507812 129.09375 C 203.183594 129.15625 202.855469 129.1875 202.527344 129.1875 C 202.195312 129.1875 201.867188 129.15625 201.542969 129.09375 C 201.21875 129.027344 200.90625 128.933594 200.597656 128.804688 C 200.292969 128.679688 200.003906 128.523438 199.730469 128.339844 C 199.453125 128.15625 199.199219 127.949219 198.964844 127.714844 C 198.730469 127.480469 198.523438 127.226562 198.339844 126.953125 C 198.15625 126.675781 198 126.386719 197.875 126.082031 C 197.75 125.777344 197.652344 125.460938 197.589844 125.136719 C 197.523438 124.8125 197.492188 124.484375 197.492188 124.15625 L 197.492188 102.582031 C 197.492188 102.398438 197.503906 102.210938 197.523438 102.027344 C 196.097656 101.59375 194.648438 101.257812 193.175781 101.015625 L 193.175781 123.4375 C 193.175781 123.8125 193.140625 124.1875 193.066406 124.558594 C 192.992188 124.929688 192.882812 125.289062 192.738281 125.636719 C 192.59375 125.988281 192.417969 126.320312 192.207031 126.632812 C 191.996094 126.945312 191.757812 127.238281 191.492188 127.503906 C 191.226562 127.773438 190.933594 128.011719 190.621094 128.21875 C 190.304688 128.429688 189.976562 128.605469 189.625 128.75 C 189.277344 128.894531 188.917969 129.003906 188.546875 129.078125 C 188.175781 129.152344 187.800781 129.1875 187.425781 129.1875 C 187.046875 129.1875 186.671875 129.152344 186.300781 129.078125 C 185.933594 129.003906 185.570312 128.894531 185.222656 128.75 C 184.875 128.605469 184.542969 128.429688 184.230469 128.21875 C 183.914062 128.011719 183.625 127.773438 183.355469 127.503906 C 183.089844 127.238281 182.851562 126.945312 182.640625 126.632812 C 182.429688 126.320312 182.253906 125.988281 182.109375 125.636719 C 181.964844 125.289062 181.855469 124.929688 181.78125 124.558594 C 181.707031 124.1875 181.671875 123.8125 181.671875 123.4375 L 181.671875 101.015625 C 180.203125 101.257812 178.753906 101.59375 177.324219 102.027344 C 177.347656 102.210938 177.355469 102.398438 177.355469 102.582031 L 177.355469 124.15625 C 177.355469 124.484375 177.324219 124.8125 177.261719 125.136719 C 177.195312 125.460938 177.101562 125.777344 176.972656 126.082031 C 176.847656 126.386719 176.691406 126.675781 176.507812 126.953125 C 176.324219 127.226562 176.117188 127.480469 175.882812 127.714844 C 175.648438 127.949219 175.394531 128.15625 175.121094 128.339844 C 174.84375 128.523438 174.554688 128.679688 174.25 128.804688 C 173.945312 128.933594 173.628906 129.027344 173.304688 129.09375 C 172.980469 129.15625 172.65625 129.1875 172.324219 129.1875 C 171.992188 129.1875 171.664062 129.15625 171.339844 129.09375 C 171.019531 129.027344 170.703125 128.933594 170.398438 128.804688 C 170.09375 128.679688 169.800781 128.523438 169.527344 128.339844 C 169.253906 128.15625 169 127.949219 168.765625 127.714844 C 168.53125 127.480469 168.320312 127.226562 168.136719 126.953125 C 167.953125 126.675781 167.800781 126.386719 167.671875 126.082031 C 167.546875 125.777344 167.453125 125.460938 167.386719 125.136719 C 167.324219 124.8125 167.289062 124.484375 167.289062 124.15625 L 167.289062 106.972656 C 165.164062 108.492188 163.234375 110.230469 161.507812 112.191406 C 159.777344 114.148438 158.289062 116.277344 157.046875 118.578125 C 155.804688 120.878906 154.835938 123.285156 154.140625 125.804688 C 153.449219 128.328125 153.050781 130.890625 152.941406 133.503906 L 221.90625 133.503906 C 221.675781 127.921875 220.171875 122.703125 217.398438 117.855469 Z M 217.398438 117.855469 "/><g clip-rule="nonzero" clip-path="url(#ddbd1f7072)"><path style=" stroke:none;fill-rule:nonzero;fill:#2a3472;fill-opacity:1;" d="M 187.425781 126.3125 C 187.804688 126.3125 188.171875 126.238281 188.523438 126.09375 C 188.878906 125.945312 189.1875 125.738281 189.457031 125.46875 C 189.726562 125.199219 189.933594 124.890625 190.082031 124.535156 C 190.226562 124.183594 190.300781 123.816406 190.300781 123.4375 L 190.300781 100.425781 C 190.300781 100.042969 190.226562 99.675781 190.082031 99.324219 C 189.9375 98.972656 189.726562 98.660156 189.457031 98.390625 C 189.1875 98.121094 188.878906 97.914062 188.523438 97.769531 C 188.171875 97.621094 187.804688 97.550781 187.425781 97.550781 C 187.042969 97.550781 186.675781 97.621094 186.324219 97.769531 C 185.972656 97.914062 185.660156 98.121094 185.390625 98.390625 C 185.121094 98.660156 184.914062 98.972656 184.765625 99.324219 C 184.621094 99.675781 184.546875 100.042969 184.546875 100.425781 L 184.546875 123.4375 C 184.546875 123.816406 184.621094 124.183594 184.769531 124.535156 C 184.914062 124.890625 185.121094 125.199219 185.390625 125.46875 C 185.660156 125.738281 185.972656 125.945312 186.324219 126.09375 C 186.675781 126.238281 187.042969 126.3125 187.425781 126.3125 Z M 187.425781 126.3125 "/></g><g clip-rule="nonzero" clip-path="url(#6b1085c6c2)"><path style=" stroke:none;fill-rule:nonzero;fill:#2a3472;fill-opacity:1;" d="M 219.0625 146.3125 L 219.0625 143.570312 L 207.355469 143.570312 C 207.183594 144.757812 206.90625 145.921875 206.527344 147.0625 C 206.148438 148.203125 205.667969 149.296875 205.09375 150.351562 C 204.515625 151.40625 203.851562 152.398438 203.097656 153.332031 C 202.34375 154.269531 201.511719 155.128906 200.605469 155.914062 C 199.699219 156.699219 198.726562 157.398438 197.695312 158.011719 C 196.664062 158.625 195.582031 159.140625 194.457031 159.558594 C 193.332031 159.980469 192.179688 160.296875 191 160.507812 C 189.816406 160.722656 188.625 160.828125 187.425781 160.828125 C 186.222656 160.828125 185.03125 160.722656 183.851562 160.507812 C 182.667969 160.296875 181.515625 159.980469 180.390625 159.558594 C 179.265625 159.140625 178.1875 158.625 177.152344 158.011719 C 176.121094 157.398438 175.152344 156.699219 174.242188 155.914062 C 173.335938 155.128906 172.503906 154.269531 171.75 153.332031 C 170.996094 152.398438 170.332031 151.40625 169.757812 150.351562 C 169.179688 149.296875 168.703125 148.203125 168.324219 147.0625 C 167.941406 145.921875 167.667969 144.757812 167.496094 143.570312 L 155.785156 143.570312 L 155.785156 146.3125 C 155.785156 146.742188 155.625 147.097656 155.308594 147.382812 L 150.3125 151.894531 L 153.261719 159.015625 L 162.644531 158.539062 C 163.070312 158.515625 163.433594 158.65625 163.734375 158.957031 L 169.160156 164.382812 C 169.464844 164.683594 169.601562 165.046875 169.582031 165.472656 L 169.101562 174.855469 L 176.226562 177.808594 L 182.519531 170.832031 C 182.808594 170.519531 183.164062 170.359375 183.589844 170.359375 L 191.261719 170.359375 C 191.6875 170.359375 192.042969 170.519531 192.328125 170.832031 L 198.625 177.808594 L 205.746094 174.859375 L 205.269531 165.472656 C 205.246094 165.046875 205.386719 164.683594 205.6875 164.382812 L 211.113281 158.957031 C 211.414062 158.65625 211.777344 158.515625 212.203125 158.539062 L 221.585938 159.019531 L 224.539062 151.894531 L 219.539062 147.382812 C 219.222656 147.097656 219.0625 146.742188 219.0625 146.3125 Z M 170.136719 160.015625 L 168.101562 157.984375 L 170.136719 155.949219 L 172.171875 157.984375 Z M 188.863281 166.582031 L 185.988281 166.582031 L 185.988281 163.707031 L 188.863281 163.707031 Z M 204.710938 160.015625 L 202.679688 157.984375 L 204.710938 155.949219 L 206.746094 157.984375 Z M 204.710938 160.015625 "/></g><g clip-rule="nonzero" clip-path="url(#d1cefbd2ab)"><path style=" stroke:none;fill-rule:nonzero;fill:#2a3472;fill-opacity:1;" d="M 225.535156 136.378906 L 149.3125 136.378906 C 149.027344 136.378906 148.75 136.433594 148.488281 136.542969 C 148.222656 136.652344 147.988281 136.808594 147.789062 137.011719 C 147.585938 137.214844 147.429688 137.449219 147.320312 137.710938 C 147.210938 137.976562 147.15625 138.25 147.15625 138.539062 C 147.15625 138.824219 147.210938 139.097656 147.320312 139.363281 C 147.429688 139.628906 147.585938 139.859375 147.789062 140.0625 C 147.988281 140.265625 148.222656 140.421875 148.488281 140.53125 C 148.75 140.640625 149.027344 140.695312 149.3125 140.695312 L 225.535156 140.695312 C 225.820312 140.695312 226.097656 140.640625 226.363281 140.53125 C 226.625 140.421875 226.859375 140.265625 227.0625 140.0625 C 227.265625 139.859375 227.417969 139.628906 227.527344 139.363281 C 227.640625 139.097656 227.695312 138.824219 227.695312 138.539062 C 227.695312 138.25 227.640625 137.976562 227.527344 137.710938 C 227.417969 137.449219 227.265625 137.214844 227.0625 137.011719 C 226.859375 136.808594 226.625 136.652344 226.363281 136.542969 C 226.097656 136.433594 225.820312 136.378906 225.535156 136.378906 Z M 225.535156 136.378906 "/></g><g style="fill:#ff8336;fill-opacity:1;"><g transform="translate(122.641316, 166.207268)"><path style="stroke:none" d="M 2.703125 -15.296875 C 3.234375 -15.296875 3.671875 -15.351562 4.015625 -15.46875 C 4.359375 -15.59375 4.632812 -15.753906 4.84375 -15.953125 C 5.0625 -16.148438 5.238281 -16.378906 5.375 -16.640625 C 5.507812 -16.910156 5.625 -17.195312 5.71875 -17.5 L 7.578125 -17.5 L 7.578125 0 L 4.828125 0 L 4.828125 -13.34375 L 2.703125 -13.34375 Z M 2.703125 -15.296875 "/></g></g><g style="fill:#ff8336;fill-opacity:1;"><g transform="translate(132.789741, 166.207268)"><path style="stroke:none" d="M 9.078125 -4.34375 C 9.078125 -2.863281 8.734375 -1.734375 8.046875 -0.953125 C 7.367188 -0.179688 6.3125 0.203125 4.875 0.203125 C 3.519531 0.203125 2.5 -0.175781 1.8125 -0.9375 C 1.125 -1.695312 0.78125 -2.785156 0.78125 -4.203125 L 0.78125 -4.65625 L 3.375 -4.65625 L 3.375 -4.03125 C 3.375 -3.394531 3.503906 -2.945312 3.765625 -2.6875 C 4.023438 -2.425781 4.367188 -2.296875 4.796875 -2.296875 C 5.285156 -2.296875 5.660156 -2.445312 5.921875 -2.75 C 6.191406 -3.050781 6.328125 -3.617188 6.328125 -4.453125 L 6.328125 -7.65625 C 5.835938 -6.613281 4.988281 -6.09375 3.78125 -6.09375 C 2.757812 -6.09375 1.992188 -6.4375 1.484375 -7.125 C 0.972656 -7.8125 0.71875 -8.800781 0.71875 -10.09375 L 0.71875 -13.296875 C 0.71875 -14.710938 1.078125 -15.800781 1.796875 -16.5625 C 2.515625 -17.320312 3.550781 -17.703125 4.90625 -17.703125 C 6.25 -17.703125 7.28125 -17.320312 8 -16.5625 C 8.71875 -15.800781 9.078125 -14.710938 9.078125 -13.296875 Z M 4.90625 -8.59375 C 5.332031 -8.59375 5.675781 -8.722656 5.9375 -8.984375 C 6.195312 -9.242188 6.328125 -9.691406 6.328125 -10.328125 L 6.328125 -13.46875 C 6.328125 -14.101562 6.195312 -14.546875 5.9375 -14.796875 C 5.675781 -15.046875 5.332031 -15.171875 4.90625 -15.171875 C 4.46875 -15.171875 4.117188 -15.046875 3.859375 -14.796875 C 3.597656 -14.546875 3.46875 -14.101562 3.46875 -13.46875 L 3.46875 -10.328125 C 3.46875 -9.691406 3.597656 -9.242188 3.859375 -8.984375 C 4.117188 -8.722656 4.46875 -8.59375 4.90625 -8.59375 Z M 4.90625 -8.59375 "/></g></g><g style="fill:#ff8336;fill-opacity:1;"><g transform="translate(231.548573, 166.207268)"><path style="stroke:none" d="M 9.078125 -4.34375 C 9.078125 -2.863281 8.734375 -1.734375 8.046875 -0.953125 C 7.367188 -0.179688 6.3125 0.203125 4.875 0.203125 C 3.519531 0.203125 2.5 -0.175781 1.8125 -0.9375 C 1.125 -1.695312 0.78125 -2.785156 0.78125 -4.203125 L 0.78125 -4.65625 L 3.375 -4.65625 L 3.375 -4.03125 C 3.375 -3.394531 3.503906 -2.945312 3.765625 -2.6875 C 4.023438 -2.425781 4.367188 -2.296875 4.796875 -2.296875 C 5.285156 -2.296875 5.660156 -2.445312 5.921875 -2.75 C 6.191406 -3.050781 6.328125 -3.617188 6.328125 -4.453125 L 6.328125 -7.65625 C 5.835938 -6.613281 4.988281 -6.09375 3.78125 -6.09375 C 2.757812 -6.09375 1.992188 -6.4375 1.484375 -7.125 C 0.972656 -7.8125 0.71875 -8.800781 0.71875 -10.09375 L 0.71875 -13.296875 C 0.71875 -14.710938 1.078125 -15.800781 1.796875 -16.5625 C 2.515625 -17.320312 3.550781 -17.703125 4.90625 -17.703125 C 6.25 -17.703125 7.28125 -17.320312 8 -16.5625 C 8.71875 -15.800781 9.078125 -14.710938 9.078125 -13.296875 Z M 4.90625 -8.59375 C 5.332031 -8.59375 5.675781 -8.722656 5.9375 -8.984375 C 6.195312 -9.242188 6.328125 -9.691406 6.328125 -10.328125 L 6.328125 -13.46875 C 6.328125 -14.101562 6.195312 -14.546875 5.9375 -14.796875 C 5.675781 -15.046875 5.332031 -15.171875 4.90625 -15.171875 C 4.46875 -15.171875 4.117188 -15.046875 3.859375 -14.796875 C 3.597656 -14.546875 3.46875 -14.101562 3.46875 -13.46875 L 3.46875 -10.328125 C 3.46875 -9.691406 3.597656 -9.242188 3.859375 -8.984375 C 4.117188 -8.722656 4.46875 -8.59375 4.90625 -8.59375 Z M 4.90625 -8.59375 "/></g></g><g style="fill:#ff8336;fill-opacity:1;"><g transform="translate(241.696999, 166.207268)"><path style="stroke:none" d="M 9.25 -4.203125 C 9.25 -2.785156 8.878906 -1.695312 8.140625 -0.9375 C 7.410156 -0.175781 6.347656 0.203125 4.953125 0.203125 C 3.546875 0.203125 2.476562 -0.175781 1.75 -0.9375 C 1.019531 -1.695312 0.65625 -2.785156 0.65625 -4.203125 L 0.65625 -5.578125 C 0.65625 -6.421875 0.785156 -7.15625 1.046875 -7.78125 C 1.316406 -8.40625 1.75 -8.882812 2.34375 -9.21875 C 1.21875 -9.84375 0.65625 -11.019531 0.65625 -12.75 L 0.65625 -13.296875 C 0.65625 -14.710938 1.019531 -15.800781 1.75 -16.5625 C 2.476562 -17.320312 3.546875 -17.703125 4.953125 -17.703125 C 6.347656 -17.703125 7.410156 -17.320312 8.140625 -16.5625 C 8.878906 -15.800781 9.25 -14.710938 9.25 -13.296875 L 9.25 -12.75 C 9.25 -11.03125 8.679688 -9.851562 7.546875 -9.21875 C 8.148438 -8.882812 8.582031 -8.40625 8.84375 -7.78125 C 9.113281 -7.15625 9.25 -6.421875 9.25 -5.578125 Z M 3.40625 -4.28125 C 3.40625 -3.488281 3.550781 -2.957031 3.84375 -2.6875 C 4.144531 -2.425781 4.515625 -2.296875 4.953125 -2.296875 C 5.378906 -2.296875 5.738281 -2.425781 6.03125 -2.6875 C 6.320312 -2.957031 6.476562 -3.488281 6.5 -4.28125 L 6.5 -5.90625 C 6.5 -6.601562 6.359375 -7.101562 6.078125 -7.40625 C 5.804688 -7.71875 5.429688 -7.875 4.953125 -7.875 C 4.460938 -7.875 4.082031 -7.71875 3.8125 -7.40625 C 3.539062 -7.101562 3.40625 -6.601562 3.40625 -5.90625 Z M 3.40625 -12.21875 C 3.40625 -11.519531 3.550781 -11.035156 3.84375 -10.765625 C 4.132812 -10.503906 4.503906 -10.375 4.953125 -10.375 C 5.378906 -10.375 5.742188 -10.503906 6.046875 -10.765625 C 6.347656 -11.035156 6.5 -11.519531 6.5 -12.21875 L 6.5 -13.203125 C 6.5 -13.984375 6.347656 -14.507812 6.046875 -14.78125 C 5.742188 -15.0625 5.378906 -15.203125 4.953125 -15.203125 C 4.515625 -15.203125 4.144531 -15.0625 3.84375 -14.78125 C 3.550781 -14.507812 3.40625 -13.984375 3.40625 -13.203125 Z M 3.40625 -12.21875 "/></g></g><path style="fill:none;stroke-width:6;stroke-linecap:round;stroke-linejoin:miter;stroke:#2a3472;stroke-opacity:1;stroke-miterlimit:4;" d="M 2.998097 2.999663 L 116.742896 2.999663 " transform="matrix(0.75,0,0,0.75,69.048302,175.699472)"/><path style="fill:none;stroke-width:6;stroke-linecap:round;stroke-linejoin:miter;stroke:#2a3472;stroke-opacity:1;stroke-miterlimit:4;" d="M 3.001902 2.999663 L 116.746701 2.999663 " transform="matrix(0.75,0,0,0.75,216.143105,175.699472)"/></g></svg>